<?xml version="1.0" encoding="UTF-8" standalone="no"?>
<svg
   inkscape:export-ydpi="96"
   inkscape:export-xdpi="96"
   inkscape:export-filename="C:\GIT\pytrnsys_gui\trnsysGUI\images\ExternalHx.png"
   sodipodi:docname="ExternalHx.svg"
   inkscape:version="1.1.1 (3bf5ae0d25, 2021-09-20)"
   id="svg1012"
   version="1.1"
   viewBox="0 0 80 120"
   height="120mm"
   width="80mm"
   xmlns:inkscape="http://www.inkscape.org/namespaces/inkscape"
   xmlns:sodipodi="http://sodipodi.sourceforge.net/DTD/sodipodi-0.dtd"
   xmlns:xlink="http://www.w3.org/1999/xlink"
   xmlns="http://www.w3.org/2000/svg"
   xmlns:svg="http://www.w3.org/2000/svg"
   xmlns:rdf="http://www.w3.org/1999/02/22-rdf-syntax-ns#"
   xmlns:cc="http://creativecommons.org/ns#"
   xmlns:dc="http://purl.org/dc/elements/1.1/">
  <defs
     id="defs1006">
    <linearGradient
       inkscape:collect="always"
       id="linearGradient1382">
      <stop
         style="stop-color:#000000;stop-opacity:1"
         offset="0"
         id="stop1378" />
      <stop
         style="stop-color:#a0a0a1;stop-opacity:1"
         offset="1"
         id="stop1380" />
    </linearGradient>
    <linearGradient
       inkscape:collect="always"
       xlink:href="#linearGradient1382"
       id="linearGradient1048"
       x1="119.75223"
       y1="101.36543"
       x2="118.43866"
       y2="165.82825"
       gradientUnits="userSpaceOnUse"
       gradientTransform="translate(-9.5225603,-9.1730227)" />
    <linearGradient
       inkscape:collect="always"
       xlink:href="#linearGradient1382"
       id="linearGradient13181"
       x1="101.27887"
       y1="157.55034"
       x2="100.15118"
       y2="92.470238"
       gradientUnits="userSpaceOnUse" />
  </defs>
  <sodipodi:namedview
     inkscape:window-maximized="1"
     inkscape:window-y="-9"
     inkscape:window-x="-9"
     inkscape:window-height="1001"
     inkscape:window-width="1920"
     fit-margin-bottom="0"
     fit-margin-right="0"
     fit-margin-left="0"
     fit-margin-top="0"
     showgrid="false"
     inkscape:document-rotation="0"
     inkscape:current-layer="layer1"
     inkscape:document-units="mm"
     inkscape:cy="241.93153"
     inkscape:cx="57.073618"
     inkscape:zoom="0.9899495"
     inkscape:pageshadow="2"
     inkscape:pageopacity="0.0"
     borderopacity="1.0"
     bordercolor="#666666"
     pagecolor="#ffffff"
     id="base"
     inkscape:pagecheckerboard="0"
     showguides="false"
     inkscape:snap-global="true" />
  <metadata
     id="metadata1009">
    <rdf:RDF>
      <cc:Work
         rdf:about="">
        <dc:format>image/svg+xml</dc:format>
        <dc:type
           rdf:resource="http://purl.org/dc/dcmitype/StillImage" />
      </cc:Work>
    </rdf:RDF>
  </metadata>
  <g
     transform="translate(-65.077377,-64.73214)"
     id="layer1"
     inkscape:groupmode="layer"
     inkscape:label="Ebene 1">
    <rect
       y="76.793343"
       x="68.403793"
       height="95.814827"
       width="73.370102"
       id="rect1587"
       style="fill:none;stroke:#000000;stroke-width:1.14421;stroke-miterlimit:4;stroke-dasharray:none"
       inkscape:export-filename="C:\Users\User\Desktop\rect1587.png"
       inkscape:export-xdpi="112.14867"
       inkscape:export-ydpi="112.14867" />
    <path
       id="path914"
       style="fill:none;stroke:url(#linearGradient1048);stroke-width:3.53;stroke-linecap:butt;stroke-linejoin:miter;stroke-miterlimit:4;stroke-dasharray:none;stroke-opacity:1"
       d="m 116.89961,164.68054 h 28.10822 M 118.08878,84.522815 h 26.90551 m -27.01768,16.026045 a 8.0044985,8.0143003 0 0 1 -6.92271,-4.098394 8.0044985,8.0143003 0 0 1 0.12758,-8.05119 8.0044985,8.0143003 0 0 1 7.04906,-3.876461 m -0.25394,16.026065 h 10.64509 m 0,0 a 8.0044985,8.0143003 0 0 1 6.92271,4.09839 8.0044985,8.0143003 0 0 1 -0.12758,8.05119 8.0044985,8.0143003 0 0 1 -7.04906,3.87646 m -10.89903,16.02604 a 8.0044985,8.0143003 0 0 1 -6.9227,-4.09839 8.0044985,8.0143003 0 0 1 0.12757,-8.05119 8.0044985,8.0143003 0 0 1 7.04907,-3.87646 m 10.3299,16.05353 a 8.0044985,8.0143003 0 0 1 6.9227,4.09839 8.0044985,8.0143003 0 0 1 -0.12757,8.0512 8.0044985,8.0143003 0 0 1 -7.04907,3.87646 m -10.89902,16.02604 a 8.0044985,8.0143003 0 0 1 -6.9227,-4.09839 8.0044985,8.0143003 0 0 1 0.12757,-8.0512 8.0044985,8.0143003 0 0 1 7.04907,-3.87646 m 0,0 h 10.64509 m -10.32991,-16.05352 h 10.64509 m -10.39115,-16.02605 h 10.64509"
       inkscape:export-filename="C:\Users\User\Desktop\rect1587.png"
       inkscape:export-xdpi="112.14867"
       inkscape:export-ydpi="112.14867" />
    <path
       d="m 93.172057,164.88987 h -28.10822 m 26.91905,-80.157731 h -26.90551 m 27.01768,16.026041 A 8.0044985,8.0143003 0 0 0 99.017766,96.659795 8.0044985,8.0143003 0 0 0 98.890189,88.6086 8.0044985,8.0143003 0 0 0 91.841127,84.732139 m 0.25394,16.026061 h -10.64509 m 0,0 a 8.0044985,8.0143003 0 0 0 -6.92271,4.09839 8.0044985,8.0143003 0 0 0 0.12758,8.05119 8.0044985,8.0143003 0 0 0 7.04906,3.87647 m 10.89903,16.02604 a 8.0044985,8.0143003 0 0 0 6.922696,-4.09839 8.0044985,8.0143003 0 0 0 -0.127567,-8.05119 8.0044985,8.0143003 0 0 0 -7.049069,-3.87646 m -10.3299,16.05353 a 8.0044985,8.0143003 0 0 0 -6.9227,4.09839 8.0044985,8.0143003 0 0 0 0.12757,8.0512 8.0044985,8.0143003 0 0 0 7.04907,3.87646 m 10.89902,16.02604 a 8.0044985,8.0143003 0 0 0 6.922703,-4.09839 8.0044985,8.0143003 0 0 0 -0.127577,-8.0512 8.0044985,8.0143003 0 0 0 -7.049066,-3.87646 m 0,0 h -10.64509 m 10.32991,-16.05352 h -10.64509 m 10.39115,-16.02605 h -10.64509"
       style="fill:none;stroke:url(#linearGradient13181);stroke-width:3.53;stroke-linecap:butt;stroke-linejoin:miter;stroke-miterlimit:4;stroke-dasharray:none;stroke-opacity:1"
       id="path1050"
       inkscape:export-filename="C:\Users\User\Desktop\rect1587.png"
       inkscape:export-xdpi="95.952179"
       inkscape:export-ydpi="95.952179" />
    <text
       xml:space="preserve"
       style="font-style:normal;font-weight:normal;font-size:14.1111px;line-height:1.25;font-family:sans-serif;fill:#000000;fill-opacity:1;stroke:none;stroke-width:0.264583"
       x="131.67592"
       y="129.93515"
       id="text2618"><tspan
         sodipodi:role="line"
         id="tspan2616"
         style="font-size:14.1111px;stroke-width:0.264583"
         x="131.67592"
         y="129.93515">2</tspan></text>
    <text
       xml:space="preserve"
       style="font-style:normal;font-weight:normal;font-size:14.1111px;line-height:1.25;font-family:sans-serif;fill:#000000;fill-opacity:1;stroke:none;stroke-width:0.264583"
       x="69.76342"
       y="129.93515"
       id="text6884"><tspan
         sodipodi:role="line"
         id="tspan6882"
         style="font-size:14.1111px;stroke-width:0.264583"
         x="69.76342"
         y="129.93515">1</tspan></text>
  </g>
</svg>
