<?xml version="1.0" encoding="UTF-8" standalone="no"?>
<svg
   xmlns:dc="http://purl.org/dc/elements/1.1/"
   xmlns:cc="http://creativecommons.org/ns#"
   xmlns:rdf="http://www.w3.org/1999/02/22-rdf-syntax-ns#"
   xmlns:svg="http://www.w3.org/2000/svg"
   xmlns="http://www.w3.org/2000/svg"
   xmlns:xlink="http://www.w3.org/1999/xlink"
   xmlns:sodipodi="http://sodipodi.sourceforge.net/DTD/sodipodi-0.dtd"
   xmlns:inkscape="http://www.inkscape.org/namespaces/inkscape"
   width="120mm"
   height="120mm"
   viewBox="0 0 120 120"
   version="1.1"
   id="svg103"
   inkscape:version="1.0 (4035a4fb49, 2020-05-01)"
   sodipodi:docname="HP.svg"
   inkscape:export-filename="C:\Daten\GIT\pytrnsys_gui\trnsysGUI\images\HP.png"
   inkscape:export-xdpi="96"
   inkscape:export-ydpi="96">
  <defs
     id="defs97">
    <linearGradient
       id="linearGradient882"
       inkscape:collect="always">
      <stop
         id="stop878"
         offset="0"
         style="stop-color:#0000ff;stop-opacity:1;" />
      <stop
         id="stop880"
         offset="1"
         style="stop-color:#aaccff;stop-opacity:1" />
    </linearGradient>
    <linearGradient
       inkscape:collect="always"
       id="linearGradient1046">
      <stop
         style="stop-color:#aaccff;stop-opacity:1"
         offset="0"
         id="stop1042" />
      <stop
         style="stop-color:#ff0000;stop-opacity:1"
         offset="1"
         id="stop1044" />
    </linearGradient>
    <linearGradient
       inkscape:collect="always"
       id="linearGradient858">
      <stop
         style="stop-color:#cccccc;stop-opacity:1"
         offset="0"
         id="stop854" />
      <stop
         style="stop-color:#666666;stop-opacity:1"
         offset="1"
         id="stop856" />
    </linearGradient>
    <linearGradient
       inkscape:collect="always"
       id="linearGradient850">
      <stop
         style="stop-color:#000000;stop-opacity:1"
         offset="0"
         id="stop846" />
      <stop
         style="stop-color:#4d4d4d;stop-opacity:1"
         offset="1"
         id="stop848" />
    </linearGradient>
    <clipPath
       clipPathUnits="userSpaceOnUse"
       id="clipPath840">
      <rect
         style="fill:#ffff00;fill-rule:evenodd;stroke:none;stroke-width:0.293198"
         id="rect842"
         width="60"
         height="120"
         x="34.494049"
         y="73.803574" />
    </clipPath>
    <linearGradient
       inkscape:collect="always"
       xlink:href="#linearGradient850"
       id="linearGradient852"
       x1="94.289253"
       y1="184.07141"
       x2="94.494049"
       y2="84.096718"
       gradientUnits="userSpaceOnUse" />
    <linearGradient
       inkscape:collect="always"
       xlink:href="#linearGradient858"
       id="linearGradient860"
       x1="94.856216"
       y1="184.44939"
       x2="94.683037"
       y2="84.096718"
       gradientUnits="userSpaceOnUse" />
    <linearGradient
       inkscape:collect="always"
       xlink:href="#linearGradient1046"
       id="linearGradient1048"
       x1="118.41589"
       y1="166.84647"
       x2="119.56757"
       y2="101.64557"
       gradientUnits="userSpaceOnUse" />
    <linearGradient
       gradientUnits="userSpaceOnUse"
       y2="102.13129"
       x2="69.650063"
       y1="166.57622"
       x1="70.388252"
       id="linearGradient884"
       xlink:href="#linearGradient882"
       inkscape:collect="always" />
  </defs>
  <sodipodi:namedview
     id="base"
     pagecolor="#ffffff"
     bordercolor="#666666"
     borderopacity="1.0"
     inkscape:pageopacity="0.0"
     inkscape:pageshadow="2"
     inkscape:zoom="0.98994949"
     inkscape:cx="149.0847"
     inkscape:cy="252.58942"
     inkscape:document-units="mm"
     inkscape:current-layer="layer1"
     inkscape:document-rotation="0"
     showgrid="false"
     fit-margin-top="0"
     fit-margin-left="0"
     fit-margin-right="0"
     fit-margin-bottom="0"
     inkscape:window-width="1920"
     inkscape:window-height="1017"
     inkscape:window-x="1912"
     inkscape:window-y="-8"
     inkscape:window-maximized="1" />
  <metadata
     id="metadata100">
    <rdf:RDF>
      <cc:Work
         rdf:about="">
        <dc:format>image/svg+xml</dc:format>
        <dc:type
           rdf:resource="http://purl.org/dc/dcmitype/StillImage" />
        <dc:title />
      </cc:Work>
    </rdf:RDF>
  </metadata>
  <g
     inkscape:label="Ebene 1"
     inkscape:groupmode="layer"
     id="layer1"
     transform="translate(-34.494049,-73.803574)">
    <rect
       style="fill:none;stroke:url(#linearGradient860);stroke-width:3.85256;stroke-linecap:round;stroke-linejoin:miter;stroke-miterlimit:4;stroke-dasharray:none"
       id="rect836"
       width="76.147438"
       height="96.147438"
       x="56.150059"
       y="85.72686"
       ry="18.865654"
       clip-path="url(#clipPath840)" />
    <rect
       clip-path="url(#clipPath840)"
       ry="18.865654"
       y="85.72686"
       x="56.150059"
       height="96.147438"
       width="76.147438"
       id="rect844"
       style="fill:none;stroke:url(#linearGradient852);stroke-width:3.85256;stroke-linecap:round;stroke-linejoin:miter;stroke-miterlimit:4;stroke-dasharray:none"
       transform="matrix(-1,0,0,1,188.44756,0)" />
    <path
       id="path914"
       style="fill:none;stroke:url(#linearGradient1048);stroke-width:3.53;stroke-linecap:butt;stroke-linejoin:miter;stroke-miterlimit:4;stroke-dasharray:none;stroke-opacity:1"
       d="m 126.42215,173.85356 h 28.10822 M 127.61132,93.695837 h 26.90551 m -27.01768,16.026043 a 8.0044985,8.0143003 0 0 1 -6.92271,-4.09839 8.0044985,8.0143003 0 0 1 0.12758,-8.051192 8.0044985,8.0143003 0 0 1 7.04906,-3.876461 m -0.25394,16.026063 h 10.64509 m 0,0 a 8.0044985,8.0143003 0 0 1 6.92271,4.09839 8.0044985,8.0143003 0 0 1 -0.12758,8.05119 8.0044985,8.0143003 0 0 1 -7.04906,3.87646 m -10.89903,16.02604 a 8.0044985,8.0143003 0 0 1 -6.9227,-4.09839 8.0044985,8.0143003 0 0 1 0.12757,-8.05119 8.0044985,8.0143003 0 0 1 7.04907,-3.87646 m 10.3299,16.05353 a 8.0044985,8.0143003 0 0 1 6.9227,4.09839 8.0044985,8.0143003 0 0 1 -0.12757,8.0512 8.0044985,8.0143003 0 0 1 -7.04907,3.87646 m -10.89902,16.02604 a 8.0044985,8.0143003 0 0 1 -6.9227,-4.09839 8.0044985,8.0143003 0 0 1 0.12757,-8.0512 8.0044985,8.0143003 0 0 1 7.04907,-3.87646 m 0,0 h 10.64509 m -10.32991,-16.05352 h 10.64509 m -10.39115,-16.02605 h 10.64509" />
    <path
       d="m 62.588729,173.9613 h -28.10822 m 26.91905,-80.157726 h -26.90551 m 27.01768,16.026046 a 8.0044985,8.0143003 0 0 0 6.92271,-4.09839 8.0044985,8.0143003 0 0 0 -0.12758,-8.051195 8.0044985,8.0143003 0 0 0 -7.04906,-3.876461 m 0.25394,16.026066 h -10.64509 m 0,0 a 8.0044985,8.0143003 0 0 0 -6.92271,4.09839 8.0044985,8.0143003 0 0 0 0.12758,8.05119 8.0044985,8.0143003 0 0 0 7.04906,3.87646 m 10.89903,16.02604 a 8.0044985,8.0143003 0 0 0 6.9227,-4.09839 8.0044985,8.0143003 0 0 0 -0.12757,-8.05119 8.0044985,8.0143003 0 0 0 -7.04907,-3.87646 m -10.3299,16.05353 a 8.0044985,8.0143003 0 0 0 -6.9227,4.09839 8.0044985,8.0143003 0 0 0 0.12757,8.0512 8.0044985,8.0143003 0 0 0 7.04907,3.87646 m 10.89902,16.02604 a 8.0044985,8.0143003 0 0 0 6.9227,-4.09839 8.0044985,8.0143003 0 0 0 -0.12757,-8.0512 8.0044985,8.0143003 0 0 0 -7.04907,-3.87646 m 0,0 h -10.64509 m 10.32991,-16.05352 h -10.64509 m 10.39115,-16.02605 h -10.64509"
       style="fill:none;stroke:url(#linearGradient884);stroke-width:3.53;stroke-linecap:butt;stroke-linejoin:miter;stroke-miterlimit:4;stroke-dasharray:none;stroke-opacity:1"
       id="path1050" />
    <circle
       style="fill:#ffffff;stroke:#000000;stroke-width:1;stroke-linecap:round;stroke-linejoin:miter;stroke-miterlimit:4;stroke-dasharray:none;stroke-opacity:1"
       id="path1056"
       cx="94.478867"
       cy="181.94254"
       r="9.5959501" />
    <path
       style="fill:none;stroke:#000000;stroke-width:1;stroke-linecap:butt;stroke-linejoin:miter;stroke-miterlimit:4;stroke-dasharray:none;stroke-opacity:1"
       d="M 107.15997,181.89465 87.97768,174.90209"
       id="path1058" />
    <path
       id="path1060"
       d="m 107.15997,181.89465 -19.18229,6.99256"
       style="fill:none;stroke:#000000;stroke-width:1;stroke-linecap:butt;stroke-linejoin:miter;stroke-miterlimit:4;stroke-dasharray:none;stroke-opacity:1" />
    <rect
       style="fill:#ffffff;stroke:none;stroke-width:1;stroke-linecap:round;stroke-linejoin:miter;stroke-miterlimit:4;stroke-dasharray:none;stroke-opacity:1"
       id="rect1072"
       width="12.662203"
       height="5.1026788"
       x="88.261162"
       y="83.063995" />
    <path
       style="fill:none;stroke:#000000;stroke-width:1;stroke-linecap:butt;stroke-linejoin:miter;stroke-miterlimit:4;stroke-dasharray:none;stroke-opacity:1"
       d="M 80.317993,76.775703 108.52635,94.98406 V 76.775703 L 80.317993,94.98406 V 76.775703"
       id="path1066" />
    <path
       style="fill:#ffffff;stroke:none;stroke-width:0.357143;stroke-linecap:round;stroke-linejoin:miter;stroke-miterlimit:4;stroke-dasharray:none;stroke-opacity:1"
       d="m 101.76787,89.955717 c -3.378161,-2.180385 -6.172704,-3.99446 -6.210092,-4.031266 -0.03739,-0.03681 2.719478,-1.866204 6.126372,-4.065327 3.40689,-2.199124 6.21231,-3.980451 6.23425,-3.958505 0.0219,0.02195 0.029,3.635306 0.0157,8.029689 l -0.0242,7.989748 z"
       id="path1068" />
    <path
       style="fill:#ffffff;stroke:none;stroke-width:0.357143;stroke-linecap:round;stroke-linejoin:miter;stroke-miterlimit:4;stroke-dasharray:none;stroke-opacity:1"
       d="M 80.837441,85.866169 V 77.77615 l 0.496094,0.317956 c 0.272851,0.174875 2.856082,1.842038 5.740511,3.704804 2.884432,1.862767 5.48903,3.54183 5.787998,3.731251 l 0.543579,0.344402 -6.206657,4.009297 c -3.413662,2.205115 -6.241502,4.023466 -6.284092,4.040786 -0.04259,0.0173 -0.07743,-3.608989 -0.07743,-8.058477 z"
       id="path1070" />
  </g>
</svg>
