<svg xmlns:cc="http://creativecommons.org/ns#" xmlns:dc="http://purl.org/dc/elements/1.1/" xmlns:inkscape="http://www.inkscape.org/namespaces/inkscape" xmlns:rdf="http://www.w3.org/1999/02/22-rdf-syntax-ns#" xmlns:sodipodi="http://sodipodi.sourceforge.net/DTD/sodipodi-0.dtd" xmlns:svg="http://www.w3.org/2000/svg" xmlns="http://www.w3.org/2000/svg" xmlns:xlink="http://www.w3.org/1999/xlink" version="1.1" id="svg2" inkscape:version="0.91 r13725" sodipodi:docname="Waermepumpe4.svg" x="0px" y="0px" viewBox="50 30 240.2 270.2" xml:space="preserve" enable-background="new 0 0 340.2 340.2">
  <style type="text/css">
    
	.st0{fill:#FFFFFF;}
	.st1{fill:#999999;}
	.st2{fill:#CCCCCC;}
	.st3{fill:url(#rect3732_1_);}
	.st4{fill:url(#rect3732-67_1_);}
	.st5{fill:none;stroke:url(#SVGID_1_);stroke-width:5;}
	.st6{fill:none;stroke:url(#SVGID_2_);stroke-width:5;}
	.st7{fill:none;stroke:#000000;stroke-width:3;}

  </style>
  <g id="layer1" transform="translate(0,-627.16536)" inkscape:groupmode="layer" inkscape:label="Ebene 1">
    <ellipse id="path3457-4" class="st0" cx="64.3" cy="693.8" rx="11.4" ry="11.4"/>
    <rect id="rect3545" x="70.1" y="701.1" class="st0" width="35.6" height="37.8"/>
    <ellipse id="path3547" cx="105.5" cy="737.5" rx="35.4" ry="36.5"/>
    <ellipse id="path3549" class="st0" cx="105.5" cy="737.6" rx="27.2" ry="27.9"/>
    <rect id="rect3551" x="67.7" y="737.5" class="st0" width="78.4" height="37.8"/>
    <rect id="rect3553" x="105.5" y="688.9" class="st0" width="41.3" height="54.7"/>
    <rect id="rect3545-3" x="215.9" y="699.3" transform="matrix(6.412286e-03 -1 1 6.412286e-03 -486.4838 948.3292)" class="st0" width="36.2" height="39.3"/>
    <ellipse id="path3547-9" transform="matrix(9.621826e-03 -1 1 9.621826e-03 -520.5943 944.9913)" class="st1" cx="216.8" cy="735.3" rx="36.9" ry="37.6"/>
    <ellipse id="path3549-8" transform="matrix(5.075463e-02 -0.9987 0.9987 5.075463e-02 -532.863 914.1855)" class="st0" cx="214.5" cy="737.4" rx="26.7" ry="26.8"/>
    <rect id="rect3551-1" x="155.8" y="717.9" transform="matrix(6.011934e-03 -1 1 6.011934e-03 -541.2576 928.83)" class="st0" width="81.5" height="37.6"/>
    <rect id="rect3553-0" x="216" y="730.3" transform="matrix(6.265504e-03 -1 1 6.265504e-03 -522.478 989.4974)" class="st0" width="41.3" height="54.6"/>
    <rect id="rect3545-3-0" x="216.4" y="845.6" transform="matrix(0.9999 -1.469058e-02 1.469058e-02 0.9999 -12.6751 3.5341)" class="st0" width="35.6" height="37.8"/>
    <ellipse id="path3547-9-0" transform="matrix(0.995 -9.972150e-02 9.972150e-02 0.995 -83.5247 26.0201)" class="st2" cx="218.5" cy="848.5" rx="37.5" ry="37.7"/>
    <ellipse id="path3549-8-5" transform="matrix(0.1825 -0.9832 0.9832 0.1825 -655.2383 901.4757)" class="st0" cx="214.5" cy="844.8" rx="25.3" ry="25.4"/>
    <rect id="rect3551-1-4" x="175.4" y="809.5" transform="matrix(0.9999 -1.469058e-02 1.469058e-02 0.9999 -12.1469 3.2423)" class="st0" width="78.4" height="37.8"/>
    <rect id="rect3553-0-3" x="175.4" y="841.5" transform="matrix(0.9999 -1.469058e-02 1.469058e-02 0.9999 -12.7431 2.9741)" class="st0" width="41.3" height="54.7"/>
    <rect id="rect3545-3-0-8" x="70.1" y="847.9" transform="matrix(1 -3.643922e-03 3.643922e-03 1 -3.154 0.3301)" class="st0" width="37.8" height="35.6"/>
    <ellipse id="path3547-9-0-0" transform="matrix(1 -3.936298e-03 3.936298e-03 1 -3.3372 0.4255)" cx="106.4" cy="848" rx="36.4" ry="35.5"/>
    <ellipse id="path3549-8-5-9" transform="matrix(1 -3.955842e-03 3.955842e-03 1 -3.3534 0.4276)" class="st0" cx="106.4" cy="847.9" rx="27.9" ry="27.2"/>
    <rect id="rect3551-1-4-3" x="106.4" y="807.2" transform="matrix(1 -3.643922e-03 3.643922e-03 1 -3.0836 0.4621)" class="st0" width="37.7" height="78.5"/>
    <rect id="rect3553-0-3-9" x="57.8" y="806.7" transform="matrix(1 -3.643922e-03 3.643922e-03 1 -3.0143 0.3157)" class="st0" width="54.6" height="41.3"/>
    <linearGradient id="rect3732_1_" gradientUnits="userSpaceOnUse" x1="266.9135" y1="-500.4952" x2="661.9135" y2="-500.4952" gradientTransform="matrix(0.7584 0 0 -0.7627 -94.7941 322.8889)">
      <stop offset="0" stop-color="#000000"/>
      <stop offset="1" style="stop-color:#FFFFFF;stop-opacity:0"/>
    </linearGradient>
    <rect id="rect3732" x="105.5" y="698.5" class="st3" width="110.1" height="12.2"/>
    <rect id="rect3732-6" x="239.9" y="818.2" inkscape:transform-center-x="0.94637253" inkscape:transform-center-y="0.65250664" class="st2" width="16.2" height="28.9"/>
    <rect id="rect3732-6-6" x="70" y="737.5" inkscape:transform-center-x="0.48426192" inkscape:transform-center-y="0.85780966" width="8.3" height="37.9"/>
    <linearGradient id="rect3732-67_1_" gradientUnits="userSpaceOnUse" x1="440.0679" y1="-727.9765" x2="265.0679" y2="-727.9765" gradientTransform="matrix(0.7612 0 0 -0.7627 -94.1251 322.8889)">
      <stop offset="0" stop-color="#FFFFFF"/>
      <stop offset="1" stop-color="#000000"/>
    </linearGradient>
    <rect id="rect3732-67" x="106.5" y="870" class="st4" width="110.4" height="16.2"/>
    <polygon id="rect4180" class="st0" points="105.6 862.9 216 857.5 216.9 869.8 106.5 875.1 "/>
    <polygon id="rect4180-0" class="st0" points="106.5 883.5 216.8 886.2 216.1 896.7 105.7 894 "/>
    <rect id="rect3732-6-6-7" x="70" y="810.6" inkscape:transform-center-x="0.5" inkscape:transform-center-y="0.84661554" width="8.6" height="37.4"/>
    <rect id="rect3732-6-1" x="241.3" y="736.7" inkscape:transform-center-x="0.75760026" inkscape:transform-center-y="0.69172185" class="st1" width="13" height="30.6"/>
    <polygon id="rect4279" class="st0" points="105.1 685.8 216.3 682.9 216.6 698.2 105.5 701.1 "/>
    <polygon id="rect4279-3" class="st0" points="105.4 709.6 216.6 711.1 216.3 726.4 105.2 724.9 "/>
    <ellipse id="path3415" transform="matrix(0.997 -7.792984e-02 7.792984e-02 0.997 -60.8931 21.7102)" cx="247.7" cy="791" rx="38.9" ry="38.2"/>
    <ellipse id="path3417" transform="matrix(0.9991 -4.291219e-02 4.291219e-02 0.9991 -33.7302 11.3335)" class="st0" cx="247.1" cy="791.3" rx="33.1" ry="31.9"/>
    <polygon id="rect3419-1" points="271.5 813.9 252.9 754.7 259.3 755.2 277.9 814.5 "/>
    <polygon id="rect3419-1_1_" points="217.6 814.5 236.3 755.2 242.6 754.7 224 813.9 "/>
  </g>
  <sodipodi:namedview bordercolor="#666666" borderopacity="1.0" id="base" inkscape:current-layer="layer1" inkscape:cx="226.28949" inkscape:cy="191.6801" inkscape:document-units="cm" inkscape:pageopacity="0.0" inkscape:pageshadow="2" inkscape:window-height="1138" inkscape:window-maximized="1" inkscape:window-width="1920" inkscape:window-x="-8" inkscape:window-y="-8" inkscape:zoom="2" pagecolor="#ffffff" showgrid="true" showguides="false" units="cm">
    <inkscape:grid id="grid7268" type="xygrid"/>
  </sodipodi:namedview>
  <linearGradient id="SVGID_1_" gradientUnits="userSpaceOnUse" x1="130.4703" y1="691.1735" x2="227.0337" y2="691.1735" gradientTransform="matrix(-1 0 0 -1 340.2 757.2692)">
    <stop offset="0" stop-color="#1A00FF"/>
    <stop offset="1" stop-color="#E91A00"/>
  </linearGradient>
  <path class="st5" d="M115.7 34.8l0.2 52.8c0 4 4.1 7.3 9.4 7.3 5.3 0 9.4-4.3 9.4-8.2l-0.2-11.9c0-4 4.1-8.2 9-8.2 4.9 0 8.9 3.7 8.9 7.7v12.9 0.5c0 4 4.1 7.3 9.3 7.3s9.3-3.3 9.3-7.3V87l0.2-13c0-4 4-7.7 9-7.7s8.9 3.6 8.9 7.7v12.8c0 4 4.2 8.1 9.4 8.1s9.4-3.3 9.4-7.3l-0.1-52.3"/>
  <linearGradient id="SVGID_2_" gradientUnits="userSpaceOnUse" x1="35.0259" y1="556.5409" x2="131.5893" y2="556.5409" gradientTransform="matrix(1 0 0 1 81.2333 -291.5666)">
    <stop offset="0" stop-color="#E98100"/>
    <stop offset="1" stop-color="#0000FF"/>
  </linearGradient>
  <path class="st6" d="M210.3 296.3l-0.2-52.8c0-4-4.1-7.3-9.4-7.3s-9.4 4.3-9.4 8.2l0.2 11.9c0 4-4.1 8.2-9 8.2s-8.9-3.7-8.9-7.7v-12.9 -0.5c0-4-4.1-7.3-9.3-7.3s-9.3 3.3-9.3 7.3v0.6l-0.2 13c0 4-4 7.7-9 7.7 -5 0-8.9-3.6-8.9-7.7v-12.8c0-4-4.2-8.1-9.4-8.1 -5.2 0-9.4 3.3-9.4 7.3l0.1 52.3"/>
  <polygon class="st7" points="59.9 148.3 88.8 148.3 59.6 183.6 88.8 183.6 "/>
</svg>
