<?xml version="1.0" encoding="UTF-8" standalone="no"?>
<svg
   xmlns:dc="http://purl.org/dc/elements/1.1/"
   xmlns:cc="http://creativecommons.org/ns#"
   xmlns:rdf="http://www.w3.org/1999/02/22-rdf-syntax-ns#"
   xmlns:svg="http://www.w3.org/2000/svg"
   xmlns="http://www.w3.org/2000/svg"
   xmlns:xlink="http://www.w3.org/1999/xlink"
   xmlns:sodipodi="http://sodipodi.sourceforge.net/DTD/sodipodi-0.dtd"
   xmlns:inkscape="http://www.inkscape.org/namespaces/inkscape"
   inkscape:export-ydpi="96"
   inkscape:export-xdpi="96"
   inkscape:export-filename="C:\Daten\GIT\pytrnsys_gui\trnsysGUI\images\HPDoubleDual.png"
   sodipodi:docname="HPDoubleDual.svg"
   inkscape:version="1.0 (4035a4fb49, 2020-05-01)"
   id="svg103"
   version="1.1"
   viewBox="0 0 120 120"
   height="120mm"
   width="120mm">
  <defs
     id="defs97">
    <linearGradient
       id="linearGradient894"
       inkscape:collect="always">
      <stop
         id="stop890"
         offset="0"
         style="stop-color:#aaccff;stop-opacity:1" />
      <stop
         id="stop892"
         offset="1"
         style="stop-color:#0000ff;stop-opacity:1" />
    </linearGradient>
    <linearGradient
       inkscape:collect="always"
       id="linearGradient885">
      <stop
         style="stop-color:#ff0000;stop-opacity:1"
         offset="0"
         id="stop881" />
      <stop
         style="stop-color:#ffaaaa;stop-opacity:1"
         offset="1"
         id="stop883" />
    </linearGradient>
    <linearGradient
       inkscape:collect="always"
       id="linearGradient879">
      <stop
         style="stop-color:#ff0000;stop-opacity:1"
         offset="0"
         id="stop875" />
      <stop
         style="stop-color:#ffaaaa;stop-opacity:1"
         offset="1"
         id="stop877" />
    </linearGradient>
    <linearGradient
       id="linearGradient1046"
       inkscape:collect="always">
      <stop
         id="stop1042"
         offset="0"
         style="stop-color:#0000ff;stop-opacity:1" />
      <stop
         id="stop1044"
         offset="1"
         style="stop-color:#ff0000;stop-opacity:1" />
    </linearGradient>
    <linearGradient
       id="linearGradient858"
       inkscape:collect="always">
      <stop
         id="stop854"
         offset="0"
         style="stop-color:#cccccc;stop-opacity:1" />
      <stop
         id="stop856"
         offset="1"
         style="stop-color:#666666;stop-opacity:1" />
    </linearGradient>
    <linearGradient
       id="linearGradient850"
       inkscape:collect="always">
      <stop
         id="stop846"
         offset="0"
         style="stop-color:#000000;stop-opacity:1" />
      <stop
         id="stop848"
         offset="1"
         style="stop-color:#4d4d4d;stop-opacity:1" />
    </linearGradient>
    <clipPath
       id="clipPath840"
       clipPathUnits="userSpaceOnUse">
      <rect
         y="73.803574"
         x="34.494049"
         height="120"
         width="60"
         id="rect842"
         style="fill:#ffff00;fill-rule:evenodd;stroke:none;stroke-width:0.293198" />
    </clipPath>
    <linearGradient
       gradientUnits="userSpaceOnUse"
       y2="84.096718"
       x2="94.494049"
       y1="184.07141"
       x1="94.289253"
       id="linearGradient852"
       xlink:href="#linearGradient850"
       inkscape:collect="always" />
    <linearGradient
       gradientUnits="userSpaceOnUse"
       y2="179.53841"
       x2="87.674248"
       y1="88.670219"
       x1="87.31559"
       id="linearGradient860"
       xlink:href="#linearGradient858"
       inkscape:collect="always" />
    <linearGradient
       inkscape:collect="always"
       xlink:href="#linearGradient1046"
       id="linearGradient912"
       gradientUnits="userSpaceOnUse"
       x1="118.98284"
       y1="101.07861"
       x2="118.62262"
       y2="166.65747"
       gradientTransform="matrix(0.62976065,0,0,0.62976065,46.99543,64.367424)" />
    <linearGradient
       inkscape:collect="always"
       xlink:href="#linearGradient879"
       id="linearGradient933"
       gradientUnits="userSpaceOnUse"
       gradientTransform="matrix(0.61722841,0,0,0.61722841,48.73923,46.626975)"
       x1="118.76851"
       y1="165.37814"
       x2="118.40829"
       y2="198.37857" />
    <linearGradient
       inkscape:collect="always"
       xlink:href="#linearGradient1046"
       id="linearGradient937"
       gradientUnits="userSpaceOnUse"
       gradientTransform="matrix(0.61722841,0,0,0.61722841,76.462699,46.496209)"
       x1="118.98284"
       y1="101.07861"
       x2="118.62262"
       y2="166.65747" />
    <linearGradient
       inkscape:collect="always"
       xlink:href="#linearGradient1046"
       id="linearGradient979"
       gradientUnits="userSpaceOnUse"
       gradientTransform="matrix(0.61722841,0,0,-0.61722841,48.702909,221.03015)"
       x1="103.97961"
       y1="162.16316"
       x2="95.474785"
       y2="190.01964" />
    <linearGradient
       inkscape:collect="always"
       xlink:href="#linearGradient885"
       id="linearGradient1004"
       gradientUnits="userSpaceOnUse"
       gradientTransform="matrix(0.61722841,0,0,-0.61722841,48.702909,221.03015)"
       x1="118.7685"
       y1="197.95657"
       x2="119.05128"
       y2="164.72849" />
    <linearGradient
       inkscape:collect="always"
       xlink:href="#linearGradient894"
       id="linearGradient888"
       gradientUnits="userSpaceOnUse"
       gradientTransform="matrix(-0.61722841,0,0,0.61722841,140.54227,46.626975)"
       x1="118.76851"
       y1="165.37814"
       x2="118.40829"
       y2="198.37857" />
  </defs>
  <sodipodi:namedview
     inkscape:window-maximized="1"
     inkscape:window-y="-9"
     inkscape:window-x="2391"
     inkscape:window-height="1271"
     inkscape:window-width="2400"
     fit-margin-bottom="0"
     fit-margin-right="0"
     fit-margin-left="0"
     fit-margin-top="0"
     showgrid="false"
     inkscape:document-rotation="0"
     inkscape:current-layer="layer1"
     inkscape:document-units="mm"
     inkscape:cy="227.85555"
     inkscape:cx="176.77303"
     inkscape:zoom="2"
     inkscape:pageshadow="2"
     inkscape:pageopacity="0.0"
     borderopacity="1.0"
     bordercolor="#666666"
     pagecolor="#ffffff"
     id="base" />
  <metadata
     id="metadata100">
    <rdf:RDF>
      <cc:Work
         rdf:about="">
        <dc:format>image/svg+xml</dc:format>
        <dc:type
           rdf:resource="http://purl.org/dc/dcmitype/StillImage" />
        <dc:title />
      </cc:Work>
    </rdf:RDF>
  </metadata>
  <g
     transform="translate(-34.494049,-73.803574)"
     id="layer1"
     inkscape:groupmode="layer"
     inkscape:label="Ebene 1">
    <rect
       clip-path="url(#clipPath840)"
       ry="18.865654"
       y="85.72686"
       x="56.150059"
       height="96.147438"
       width="76.147438"
       id="rect836"
       style="fill:none;stroke:url(#linearGradient860);stroke-width:3.85256;stroke-linecap:round;stroke-linejoin:miter;stroke-miterlimit:4;stroke-dasharray:none" />
    <g
       transform="matrix(-1,0,0,1,221.82525,63.499998)"
       id="g921">
      <circle
         r="8.5004263"
         cy="48.270531"
         cx="-166.13742"
         id="circle870"
         style="fill:none;stroke:#000000;stroke-width:0.999149;stroke-linecap:round;stroke-miterlimit:4;stroke-dasharray:none"
         transform="scale(-1,1)" />
      <circle
         style="fill:none;stroke:#000000;stroke-width:1;stroke-linecap:round;stroke-miterlimit:4;stroke-dasharray:none"
         id="circle872"
         cx="-166.13742"
         cy="48.270531"
         r="12.463305"
         transform="scale(-1,1)" />
      <path
         style="fill:#000000;stroke:#ffffff;stroke-width:1;stroke-linecap:butt;stroke-linejoin:miter;stroke-miterlimit:4;stroke-dasharray:none;stroke-opacity:1"
         d="m 166.13244,48.380252 c 0,0 -5.38762,-14.62354 -14.31567,-14.16174 -8.92806,0.46178 -7.6966,9.08199 -7.6966,9.08199 0,0 -0.46179,3.69436 4.46403,2.9247 4.92582,-0.76966 12.31455,1.23144 14.00781,2.61685 1.69325,1.38537 3.54043,-0.4618 3.54043,-0.4618 z"
         id="path860" />
      <path
         style="fill:#000000;stroke:#ffffff;stroke-width:1;stroke-linecap:butt;stroke-linejoin:miter;stroke-miterlimit:4;stroke-dasharray:none;stroke-opacity:1"
         d="m 166.13244,48.380252 c 0,0 -9.97053,11.977567 -5.10658,19.478597 4.86394,7.50103 11.71353,2.12445 11.71353,2.12445 0,0 3.43031,-1.44725 0.30085,-5.32831 -3.12945,-3.88106 -5.09081,-11.280447 -4.73765,-13.439547 0.35316,-2.15908 -2.17015,-2.83519 -2.17015,-2.83519 z"
         id="path866" />
      <path
         id="path864"
         d="m 166.13244,48.380252 c 0,0 15.35816,2.64595 19.42227,-5.31686 4.0641,-7.96282 -4.01694,-11.20645 -4.01694,-11.20645 0,0 -2.96851,-2.2471 -4.76488,2.40362 -1.79637,4.65071 -7.22375,10.04899 -9.27016,10.82269 -2.0464,0.77371 -1.37029,3.297 -1.37029,3.297 z"
         style="fill:#000000;stroke:#ffffff;stroke-width:1;stroke-linecap:butt;stroke-linejoin:miter;stroke-miterlimit:4;stroke-dasharray:none;stroke-opacity:1" />
      <circle
         style="fill:#000000;stroke:#ffffff;stroke-width:1.41215;stroke-linecap:round"
         id="path862"
         cx="-166.13742"
         cy="48.270531"
         r="5"
         transform="scale(-1,1)" />
      <circle
         r="16.468136"
         cy="48.270531"
         cx="-166.13742"
         id="circle874"
         style="fill:none;stroke:#000000;stroke-width:1;stroke-linecap:round;stroke-miterlimit:4;stroke-dasharray:none"
         transform="scale(-1,1)" />
    </g>
    <path
       id="path884"
       d="M 62.44765,144.04263 H 45.39478"
       style="fill:none;stroke:#aaccff;stroke-width:3.53;stroke-linecap:butt;stroke-linejoin:miter;stroke-miterlimit:4;stroke-dasharray:none;stroke-opacity:1" />
    <rect
       transform="matrix(-1,0,0,1,188.44756,0)"
       style="fill:none;stroke:url(#linearGradient852);stroke-width:3.85256;stroke-linecap:round;stroke-linejoin:miter;stroke-miterlimit:4;stroke-dasharray:none"
       id="rect844"
       width="76.147438"
       height="96.147438"
       x="56.150059"
       y="85.72686"
       ry="18.865654"
       clip-path="url(#clipPath840)" />
    <rect
       y="179.53841"
       x="87.674248"
       height="5.1026788"
       width="12.662203"
       id="rect1072"
       style="fill:#ffffff;stroke:none;stroke-width:1;stroke-linecap:round;stroke-linejoin:miter;stroke-miterlimit:4;stroke-dasharray:none;stroke-opacity:1" />
    <g
       id="g967">
      <path
         d="m 126.77058,153.93434 a 4.9406039,4.946654 0 0 1 -4.27292,-2.52964 4.9406039,4.946654 0 0 1 0.0788,-4.96943 4.9406039,4.946654 0 0 1 4.35093,-2.39264 m -0.31362,29.74316 a 4.9406039,4.946654 0 0 1 -4.27292,-2.52964 4.9406039,4.946654 0 0 1 0.0788,-4.96943 4.9406039,4.946654 0 0 1 4.35093,-2.39264 m 10.24691,-9.99212 a 4.9406039,4.946654 0 0 1 4.27292,2.52964 4.9406039,4.946654 0 0 1 -0.0788,4.96943 4.9406039,4.946654 0 0 1 -4.35093,2.39264 m -10.18459,-9.85933 h 10.64509 m -10.89903,19.91922 h 28.10822 m -27.85428,-10.05397 h 10.64509"
         style="fill:none;stroke:url(#linearGradient933);stroke-width:3.53;stroke-linecap:butt;stroke-linejoin:miter;stroke-miterlimit:4;stroke-dasharray:none;stroke-opacity:1"
         id="path931" />
      <path
         transform="rotate(-90)"
         sodipodi:open="true"
         d="m -153.80357,154.49406 a 5.3189349,5.318253 0 0 1 5.30877,-5.30646"
         sodipodi:arc-type="arc"
         sodipodi:end="4.7104808"
         sodipodi:start="3.1438092"
         sodipodi:ry="5.318253"
         sodipodi:rx="5.3189349"
         sodipodi:cy="154.50584"
         sodipodi:cx="-148.48465"
         sodipodi:type="arc"
         id="path953"
         style="fill:none;stroke:#ff0000;stroke-width:3.53;stroke-linecap:butt;stroke-miterlimit:4;stroke-dasharray:none;stroke-opacity:1" />
      <path
         transform="rotate(90)"
         style="fill:none;stroke:#ff0000;stroke-width:3.53;stroke-linecap:butt;stroke-miterlimit:4;stroke-dasharray:none;stroke-opacity:1"
         id="path955"
         sodipodi:type="arc"
         sodipodi:cx="149.42296"
         sodipodi:cy="-143.86935"
         sodipodi:rx="5.3189349"
         sodipodi:ry="5.318253"
         sodipodi:start="3.1438092"
         sodipodi:end="4.7104808"
         sodipodi:arc-type="arc"
         d="m 144.10404,-143.88114 a 5.3189349,5.318253 0 0 1 5.30877,-5.30646"
         sodipodi:open="true" />
      <path
         id="path957"
         d="m 126.83385,144.04263 h 17.05287"
         style="fill:none;stroke:#ff0000;stroke-width:3.53;stroke-linecap:butt;stroke-linejoin:miter;stroke-miterlimit:4;stroke-dasharray:none;stroke-opacity:1" />
    </g>
    <path
       style="fill:none;stroke:#ff0000;stroke-width:3.53;stroke-linecap:butt;stroke-linejoin:miter;stroke-miterlimit:4;stroke-dasharray:none;stroke-opacity:1"
       d="m 126.38583,93.80357 h 28.10822"
       id="path999" />
    <path
       id="path969"
       style="fill:none;stroke:url(#linearGradient1004);stroke-width:3.53;stroke-linecap:butt;stroke-linejoin:miter;stroke-miterlimit:4;stroke-dasharray:none;stroke-opacity:1"
       d="m 126.73426,113.72279 a 4.9406039,4.946654 0 0 0 -4.27292,2.52964 4.9406039,4.946654 0 0 0 0.0788,4.96943 4.9406039,4.946654 0 0 0 4.35093,2.39264 m -0.31362,-29.74316 a 4.9406039,4.946654 0 0 0 -4.27292,2.52964 4.9406039,4.946654 0 0 0 0.0788,4.96943 4.9406039,4.946654 0 0 0 4.35093,2.39264 m 10.24691,9.99212 a 4.9406039,4.946654 0 0 0 4.27292,-2.52964 4.9406039,4.946654 0 0 0 -0.0788,-4.96943 4.9406039,4.946654 0 0 0 -4.35093,-2.39264 m -10.18459,9.85933 h 10.64509 m -10.64509,-9.86525 h 10.64509" />
    <path
       d="m 154.45774,113.85356 a 5.318253,5.3189349 0 0 0 -5.30646,5.30877"
       style="fill:none;stroke:#ffaaaa;stroke-width:3.53;stroke-linecap:butt;stroke-miterlimit:4;stroke-dasharray:none;stroke-opacity:1"
       id="path971" />
    <path
       d="m 143.84482,123.55309 a 5.318253,5.3189349 0 0 0 5.30646,-5.30877"
       style="fill:none;stroke:#ffaaaa;stroke-width:3.53;stroke-linecap:butt;stroke-miterlimit:4;stroke-dasharray:none;stroke-opacity:1"
       id="path973" />
    <path
       id="path975"
       d="M 126.79753,123.6145 H 143.8504"
       style="fill:none;stroke:#ffaaaa;stroke-width:3.53;stroke-linecap:butt;stroke-linejoin:miter;stroke-miterlimit:4;stroke-dasharray:none;stroke-opacity:1" />
    <path
       d="m 62.51092,153.93434 a -4.9406039,4.946654 0 0 0 4.27292,-2.52964 -4.9406039,4.946654 0 0 0 -0.0788,-4.96943 -4.9406039,4.946654 0 0 0 -4.35093,-2.39264 m 0.31362,29.74316 a -4.9406039,4.946654 0 0 0 4.27292,-2.52964 -4.9406039,4.946654 0 0 0 -0.0788,-4.96943 -4.9406039,4.946654 0 0 0 -4.35093,-2.39264 m -10.24691,-9.99212 a -4.9406039,4.946654 0 0 0 -4.27292,2.52964 -4.9406039,4.946654 0 0 0 0.0788,4.96943 -4.9406039,4.946654 0 0 0 4.35093,2.39264 m 10.18459,-9.85933 H 51.96032 m 10.89903,19.91922 H 34.75113 M 62.60541,163.79959 H 51.96032"
       style="fill:none;stroke:url(#linearGradient888);stroke-width:3.53;stroke-linecap:butt;stroke-linejoin:miter;stroke-miterlimit:4;stroke-dasharray:none;stroke-opacity:1"
       id="path878" />
    <path
       transform="matrix(0,-1,-1,0,0,0)"
       sodipodi:open="true"
       sodipodi:arc-type="arc"
       sodipodi:end="4.7104808"
       sodipodi:start="3.1438092"
       sodipodi:ry="5.318253"
       sodipodi:rx="5.3189349"
       sodipodi:cy="-34.775658"
       sodipodi:cx="-148.48465"
       sodipodi:type="arc"
       id="path880"
       style="fill:none;stroke:#aaccff;stroke-width:3.53;stroke-linecap:butt;stroke-miterlimit:4;stroke-dasharray:none;stroke-opacity:1"
       d="m -153.80357,-34.787446 a 5.3189349,5.318253 0 0 1 5.30877,-5.306455" />
    <path
       transform="matrix(0,1,1,0,0,0)"
       style="fill:none;stroke:#aaccff;stroke-width:3.53;stroke-linecap:butt;stroke-miterlimit:4;stroke-dasharray:none;stroke-opacity:1"
       id="path882"
       sodipodi:type="arc"
       sodipodi:cx="149.42296"
       sodipodi:cy="45.412148"
       sodipodi:rx="5.3189349"
       sodipodi:ry="5.318253"
       sodipodi:start="3.1438092"
       sodipodi:end="4.7104808"
       sodipodi:arc-type="arc"
       sodipodi:open="true"
       d="m 144.10404,45.400359 a 5.3189349,5.318253 0 0 1 5.30877,-5.306455" />
    <circle
       r="9.5959501"
       cy="85.84211"
       cx="94.025299"
       id="path1056-1"
       style="fill:#ffffff;stroke:#000000;stroke-width:1;stroke-linecap:round;stroke-linejoin:miter;stroke-miterlimit:4;stroke-dasharray:none;stroke-opacity:1" />
    <path
       style="fill:none;stroke:#000000;stroke-width:1;stroke-linecap:butt;stroke-linejoin:miter;stroke-miterlimit:4;stroke-dasharray:none;stroke-opacity:1"
       d="m 87.524111,78.800481 14.298319,1.48439"
       id="path873" />
    <path
       id="path875"
       d="M 87.524111,92.785462 101.82243,91.301091"
       style="fill:none;stroke:#000000;stroke-width:1;stroke-linecap:butt;stroke-linejoin:miter;stroke-miterlimit:4;stroke-dasharray:none;stroke-opacity:1" />
    <g
       transform="translate(2.4252478,0.21515476)"
       id="g879">
      <path
         style="fill:#ffffff;stroke:#000000;stroke-width:1;stroke-linecap:butt;stroke-linejoin:round;stroke-miterlimit:4;stroke-dasharray:none;stroke-opacity:1"
         d="m 94.12276,181.88393 7.23219,-4.69689 0.007,9.56836 z"
         id="path867" />
      <path
         style="fill:#ffffff;stroke:#000000;stroke-width:1;stroke-linecap:butt;stroke-linejoin:round;stroke-miterlimit:4;stroke-dasharray:none;stroke-opacity:1"
         d="m 94.12276,181.88393 -12.410667,7.89709 -3e-6,-15.93536 z"
         id="path871" />
    </g>
  </g>
</svg>
