<?xml version="1.0" encoding="UTF-8" standalone="no"?>
<svg
   xmlns:dc="http://purl.org/dc/elements/1.1/"
   xmlns:cc="http://creativecommons.org/ns#"
   xmlns:rdf="http://www.w3.org/1999/02/22-rdf-syntax-ns#"
   xmlns:svg="http://www.w3.org/2000/svg"
   xmlns="http://www.w3.org/2000/svg"
   xmlns:xlink="http://www.w3.org/1999/xlink"
   xmlns:sodipodi="http://sodipodi.sourceforge.net/DTD/sodipodi-0.dtd"
   xmlns:inkscape="http://www.inkscape.org/namespaces/inkscape"
   width="120mm"
   height="120mm"
   viewBox="0 0 120 120"
   version="1.1"
   id="svg103"
   inkscape:version="1.0 (4035a4fb49, 2020-05-01)"
   sodipodi:docname="HPDoubleDual.svg"
   inkscape:export-filename="C:\Daten\GIT\pytrnsys_gui\trnsysGUI\images\HPDoubleDual.png"
   inkscape:export-xdpi="96"
   inkscape:export-ydpi="96">
  <defs
     id="defs97">
    <linearGradient
       inkscape:collect="always"
       id="linearGradient894">
      <stop
         style="stop-color:#aaccff;stop-opacity:1"
         offset="0"
         id="stop890" />
      <stop
         style="stop-color:#0000ff;stop-opacity:1"
         offset="1"
         id="stop892" />
    </linearGradient>
    <linearGradient
       id="linearGradient885"
       inkscape:collect="always">
      <stop
         id="stop881"
         offset="0"
         style="stop-color:#ff0000;stop-opacity:1" />
      <stop
         id="stop883"
         offset="1"
         style="stop-color:#aaccff;stop-opacity:1" />
    </linearGradient>
    <linearGradient
       id="linearGradient879"
       inkscape:collect="always">
      <stop
         id="stop875"
         offset="0"
         style="stop-color:#ff0000;stop-opacity:1" />
      <stop
         id="stop877"
         offset="1"
         style="stop-color:#aaccff;stop-opacity:1" />
    </linearGradient>
    <linearGradient
       inkscape:collect="always"
       id="linearGradient1046">
      <stop
         style="stop-color:#0000ff;stop-opacity:1"
         offset="0"
         id="stop1042" />
      <stop
         style="stop-color:#ff0000;stop-opacity:1"
         offset="1"
         id="stop1044" />
    </linearGradient>
    <linearGradient
       inkscape:collect="always"
       id="linearGradient858">
      <stop
         style="stop-color:#cccccc;stop-opacity:1"
         offset="0"
         id="stop854" />
      <stop
         style="stop-color:#666666;stop-opacity:1"
         offset="1"
         id="stop856" />
    </linearGradient>
    <linearGradient
       inkscape:collect="always"
       id="linearGradient850">
      <stop
         style="stop-color:#000000;stop-opacity:1"
         offset="0"
         id="stop846" />
      <stop
         style="stop-color:#4d4d4d;stop-opacity:1"
         offset="1"
         id="stop848" />
    </linearGradient>
    <clipPath
       clipPathUnits="userSpaceOnUse"
       id="clipPath840">
      <rect
         style="fill:#ffff00;fill-rule:evenodd;stroke:none;stroke-width:0.293198"
         id="rect842"
         width="60"
         height="120"
         x="34.494049"
         y="73.803574" />
    </clipPath>
    <linearGradient
       inkscape:collect="always"
       xlink:href="#linearGradient850"
       id="linearGradient852"
       x1="94.289253"
       y1="184.07141"
       x2="94.494049"
       y2="84.096718"
       gradientUnits="userSpaceOnUse" />
    <linearGradient
       inkscape:collect="always"
       xlink:href="#linearGradient858"
       id="linearGradient860"
       x1="94.856216"
       y1="184.44939"
       x2="94.683037"
       y2="84.096718"
       gradientUnits="userSpaceOnUse" />
    <linearGradient
       gradientTransform="matrix(0.62976065,0,0,0.62976065,46.99543,64.367424)"
       y2="166.65747"
       x2="118.62262"
       y1="101.07861"
       x1="118.98284"
       gradientUnits="userSpaceOnUse"
       id="linearGradient912"
       xlink:href="#linearGradient1046"
       inkscape:collect="always" />
    <linearGradient
       y2="198.37857"
       x2="118.40829"
       y1="165.37814"
       x1="118.76851"
       gradientTransform="matrix(0.61722841,0,0,0.61722841,48.73923,46.626975)"
       gradientUnits="userSpaceOnUse"
       id="linearGradient933"
       xlink:href="#linearGradient879"
       inkscape:collect="always" />
    <linearGradient
       y2="166.65747"
       x2="118.62262"
       y1="101.07861"
       x1="118.98284"
       gradientTransform="matrix(0.61722841,0,0,0.61722841,76.462699,46.496209)"
       gradientUnits="userSpaceOnUse"
       id="linearGradient937"
       xlink:href="#linearGradient1046"
       inkscape:collect="always" />
    <linearGradient
       y2="190.01964"
       x2="95.474785"
       y1="162.16316"
       x1="103.97961"
       gradientTransform="matrix(0.61722841,0,0,-0.61722841,48.702909,221.03015)"
       gradientUnits="userSpaceOnUse"
       id="linearGradient979"
       xlink:href="#linearGradient1046"
       inkscape:collect="always" />
    <linearGradient
       y2="164.72849"
       x2="119.05128"
       y1="197.95657"
       x1="118.7685"
       gradientTransform="matrix(0.61722841,0,0,-0.61722841,48.702909,221.03015)"
       gradientUnits="userSpaceOnUse"
       id="linearGradient1004"
       xlink:href="#linearGradient885"
       inkscape:collect="always" />
    <linearGradient
       y2="198.37857"
       x2="118.40829"
       y1="165.37814"
       x1="118.76851"
       gradientTransform="matrix(0.61722841,0,0,0.61722841,48.73923,46.626975)"
       gradientUnits="userSpaceOnUse"
       id="linearGradient888"
       xlink:href="#linearGradient894"
       inkscape:collect="always" />
  </defs>
  <sodipodi:namedview
     id="base"
     pagecolor="#ffffff"
     bordercolor="#666666"
     borderopacity="1.0"
     inkscape:pageopacity="0.0"
     inkscape:pageshadow="2"
     inkscape:zoom="1"
     inkscape:cx="176.77303"
     inkscape:cy="244.42409"
     inkscape:document-units="mm"
     inkscape:current-layer="g886"
     inkscape:document-rotation="0"
     showgrid="false"
     fit-margin-top="0"
     fit-margin-left="0"
     fit-margin-right="0"
     fit-margin-bottom="0"
     inkscape:window-width="1920"
     inkscape:window-height="1017"
     inkscape:window-x="1912"
     inkscape:window-y="-8"
     inkscape:window-maximized="1" />
  <metadata
     id="metadata100">
    <rdf:RDF>
      <cc:Work
         rdf:about="">
        <dc:format>image/svg+xml</dc:format>
        <dc:type
           rdf:resource="http://purl.org/dc/dcmitype/StillImage" />
        <dc:title />
      </cc:Work>
    </rdf:RDF>
  </metadata>
  <g
     inkscape:label="Ebene 1"
     inkscape:groupmode="layer"
     id="layer1"
     transform="translate(-34.494049,-73.803574)">
    <rect
       style="fill:none;stroke:url(#linearGradient860);stroke-width:3.85256;stroke-linecap:round;stroke-linejoin:miter;stroke-miterlimit:4;stroke-dasharray:none"
       id="rect836"
       width="76.147438"
       height="96.147438"
       x="56.150059"
       y="85.72686"
       ry="18.865654"
       clip-path="url(#clipPath840)" />
    <rect
       clip-path="url(#clipPath840)"
       ry="18.865654"
       y="85.72686"
       x="56.150059"
       height="96.147438"
       width="76.147438"
       id="rect844"
       style="fill:none;stroke:url(#linearGradient852);stroke-width:3.85256;stroke-linecap:round;stroke-linejoin:miter;stroke-miterlimit:4;stroke-dasharray:none"
       transform="matrix(-1,0,0,1,188.44756,0)" />
    <circle
       style="fill:#ffffff;stroke:#000000;stroke-width:1;stroke-linecap:round;stroke-linejoin:miter;stroke-miterlimit:4;stroke-dasharray:none;stroke-opacity:1"
       id="path1056"
       cx="94.478867"
       cy="181.94254"
       r="9.5959501" />
    <path
       style="fill:none;stroke:#000000;stroke-width:1;stroke-linecap:butt;stroke-linejoin:miter;stroke-miterlimit:4;stroke-dasharray:none;stroke-opacity:1"
       d="M 107.15997,181.89465 87.97768,174.90209"
       id="path1058" />
    <path
       id="path1060"
       d="m 107.15997,181.89465 -19.18229,6.99256"
       style="fill:none;stroke:#000000;stroke-width:1;stroke-linecap:butt;stroke-linejoin:miter;stroke-miterlimit:4;stroke-dasharray:none;stroke-opacity:1" />
    <rect
       style="fill:#ffffff;stroke:none;stroke-width:1;stroke-linecap:round;stroke-linejoin:miter;stroke-miterlimit:4;stroke-dasharray:none;stroke-opacity:1"
       id="rect1072"
       width="12.662203"
       height="5.1026788"
       x="88.261162"
       y="83.063995" />
    <path
       style="fill:none;stroke:#000000;stroke-width:1;stroke-linecap:butt;stroke-linejoin:miter;stroke-miterlimit:4;stroke-dasharray:none;stroke-opacity:1"
       d="M 80.317993,76.775703 108.52635,94.98406 V 76.775703 L 80.317993,94.98406 V 76.775703"
       id="path1066" />
    <path
       style="fill:#ffffff;stroke:none;stroke-width:0.357143;stroke-linecap:round;stroke-linejoin:miter;stroke-miterlimit:4;stroke-dasharray:none;stroke-opacity:1"
       d="m 101.76787,89.955717 c -3.378161,-2.180385 -6.172704,-3.99446 -6.210092,-4.031266 -0.03739,-0.03681 2.719478,-1.866204 6.126372,-4.065327 3.40689,-2.199124 6.21231,-3.980451 6.23425,-3.958505 0.0219,0.02195 0.029,3.635306 0.0157,8.029689 l -0.0242,7.989748 z"
       id="path1068" />
    <path
       style="fill:#ffffff;stroke:none;stroke-width:0.357143;stroke-linecap:round;stroke-linejoin:miter;stroke-miterlimit:4;stroke-dasharray:none;stroke-opacity:1"
       d="M 80.837441,85.866169 V 77.77615 l 0.496094,0.317956 c 0.272851,0.174875 2.856082,1.842038 5.740511,3.704804 2.884432,1.862767 5.48903,3.54183 5.787998,3.731251 l 0.543579,0.344402 -6.206657,4.009297 c -3.413662,2.205115 -6.241502,4.023466 -6.284092,4.040786 -0.04259,0.0173 -0.07743,-3.608989 -0.07743,-8.058477 z"
       id="path1070" />
    <g
       id="g967">
      <path
         id="path931"
         style="fill:none;stroke:url(#linearGradient933);stroke-width:3.53;stroke-linecap:butt;stroke-linejoin:miter;stroke-miterlimit:4;stroke-dasharray:none;stroke-opacity:1"
         d="m 126.77058,153.93434 a 4.9406039,4.946654 0 0 1 -4.27292,-2.52964 4.9406039,4.946654 0 0 1 0.0788,-4.96943 4.9406039,4.946654 0 0 1 4.35093,-2.39264 m -0.31362,29.74316 a 4.9406039,4.946654 0 0 1 -4.27292,-2.52964 4.9406039,4.946654 0 0 1 0.0788,-4.96943 4.9406039,4.946654 0 0 1 4.35093,-2.39264 m 10.24691,-9.99212 a 4.9406039,4.946654 0 0 1 4.27292,2.52964 4.9406039,4.946654 0 0 1 -0.0788,4.96943 4.9406039,4.946654 0 0 1 -4.35093,2.39264 m -10.18459,-9.85933 h 10.64509 m -10.89903,19.91922 h 28.10822 m -27.85428,-10.05397 h 10.64509" />
      <path
         style="fill:none;stroke:#ff0000;stroke-width:3.53;stroke-linecap:butt;stroke-miterlimit:4;stroke-dasharray:none;stroke-opacity:1"
         id="path953"
         sodipodi:type="arc"
         sodipodi:cx="-148.48465"
         sodipodi:cy="154.50584"
         sodipodi:rx="5.3189349"
         sodipodi:ry="5.318253"
         sodipodi:start="3.1438092"
         sodipodi:end="4.7104808"
         sodipodi:arc-type="arc"
         d="m -153.80357,154.49406 a 5.3189349,5.318253 0 0 1 5.30877,-5.30646"
         sodipodi:open="true"
         transform="rotate(-90)" />
      <path
         sodipodi:open="true"
         d="m 144.10404,-143.88114 a 5.3189349,5.318253 0 0 1 5.30877,-5.30646"
         sodipodi:arc-type="arc"
         sodipodi:end="4.7104808"
         sodipodi:start="3.1438092"
         sodipodi:ry="5.318253"
         sodipodi:rx="5.3189349"
         sodipodi:cy="-143.86935"
         sodipodi:cx="149.42296"
         sodipodi:type="arc"
         id="path955"
         style="fill:none;stroke:#ff0000;stroke-width:3.53;stroke-linecap:butt;stroke-miterlimit:4;stroke-dasharray:none;stroke-opacity:1"
         transform="rotate(90)" />
      <path
         style="fill:none;stroke:#ff0000;stroke-width:3.53;stroke-linecap:butt;stroke-linejoin:miter;stroke-miterlimit:4;stroke-dasharray:none;stroke-opacity:1"
         d="m 126.83385,144.04263 h 17.05287"
         id="path957" />
    </g>
    <path
       id="path999"
       d="m 126.38583,93.80357 h 28.10822"
       style="fill:none;stroke:#ff0000;stroke-width:3.53;stroke-linecap:butt;stroke-linejoin:miter;stroke-miterlimit:4;stroke-dasharray:none;stroke-opacity:1" />
    <path
       d="m 126.73426,113.72279 a 4.9406039,4.946654 0 0 0 -4.27292,2.52964 4.9406039,4.946654 0 0 0 0.0788,4.96943 4.9406039,4.946654 0 0 0 4.35093,2.39264 m -0.31362,-29.74316 a 4.9406039,4.946654 0 0 0 -4.27292,2.52964 4.9406039,4.946654 0 0 0 0.0788,4.96943 4.9406039,4.946654 0 0 0 4.35093,2.39264 m 10.24691,9.99212 a 4.9406039,4.946654 0 0 0 4.27292,-2.52964 4.9406039,4.946654 0 0 0 -0.0788,-4.96943 4.9406039,4.946654 0 0 0 -4.35093,-2.39264 m -10.18459,9.85933 h 10.64509 m -10.64509,-9.86525 h 10.64509"
       style="fill:none;stroke:url(#linearGradient1004);stroke-width:3.53;stroke-linecap:butt;stroke-linejoin:miter;stroke-miterlimit:4;stroke-dasharray:none;stroke-opacity:1"
       id="path969" />
    <path
       id="path971"
       style="fill:none;stroke:#aaccff;stroke-width:3.53;stroke-linecap:butt;stroke-miterlimit:4;stroke-dasharray:none;stroke-opacity:1"
       d="m 154.45774,113.85356 a 5.318253,5.3189349 0 0 0 -5.30646,5.30877" />
    <path
       id="path973"
       style="fill:none;stroke:#aaccff;stroke-width:3.53;stroke-linecap:butt;stroke-miterlimit:4;stroke-dasharray:none;stroke-opacity:1"
       d="m 143.84482,123.55309 a 5.318253,5.3189349 0 0 0 5.30646,-5.30877" />
    <path
       style="fill:none;stroke:#aaccff;stroke-width:3.53;stroke-linecap:butt;stroke-linejoin:miter;stroke-miterlimit:4;stroke-dasharray:none;stroke-opacity:1"
       d="M 126.79753,123.6145 H 143.8504"
       id="path975" />
    <g
       transform="matrix(-1,0,0,1,189.2815,0)"
       id="g886">
      <path
         d="m 126.77058,153.93434 a 4.9406039,4.946654 0 0 1 -4.27292,-2.52964 4.9406039,4.946654 0 0 1 0.0788,-4.96943 4.9406039,4.946654 0 0 1 4.35093,-2.39264 m -0.31362,29.74316 a 4.9406039,4.946654 0 0 1 -4.27292,-2.52964 4.9406039,4.946654 0 0 1 0.0788,-4.96943 4.9406039,4.946654 0 0 1 4.35093,-2.39264 m 10.24691,-9.99212 a 4.9406039,4.946654 0 0 1 4.27292,2.52964 4.9406039,4.946654 0 0 1 -0.0788,4.96943 4.9406039,4.946654 0 0 1 -4.35093,2.39264 m -10.18459,-9.85933 h 10.64509 m -10.89903,19.91922 h 28.10822 m -27.85428,-10.05397 h 10.64509"
         style="fill:none;stroke:url(#linearGradient888);stroke-width:3.53;stroke-linecap:butt;stroke-linejoin:miter;stroke-miterlimit:4;stroke-dasharray:none;stroke-opacity:1"
         id="path878" />
      <path
         transform="rotate(-90)"
         sodipodi:open="true"
         d="m -153.80357,154.49406 a 5.3189349,5.318253 0 0 1 5.30877,-5.30646"
         sodipodi:arc-type="arc"
         sodipodi:end="4.7104808"
         sodipodi:start="3.1438092"
         sodipodi:ry="5.318253"
         sodipodi:rx="5.3189349"
         sodipodi:cy="154.50584"
         sodipodi:cx="-148.48465"
         sodipodi:type="arc"
         id="path880"
         style="fill:none;stroke:#aaccff;stroke-width:3.53;stroke-linecap:butt;stroke-miterlimit:4;stroke-dasharray:none;stroke-opacity:1" />
      <path
         transform="rotate(90)"
         style="fill:none;stroke:#aaccff;stroke-width:3.53;stroke-linecap:butt;stroke-miterlimit:4;stroke-dasharray:none;stroke-opacity:1"
         id="path882"
         sodipodi:type="arc"
         sodipodi:cx="149.42296"
         sodipodi:cy="-143.86935"
         sodipodi:rx="5.3189349"
         sodipodi:ry="5.318253"
         sodipodi:start="3.1438092"
         sodipodi:end="4.7104808"
         sodipodi:arc-type="arc"
         d="m 144.10404,-143.88114 a 5.3189349,5.318253 0 0 1 5.30877,-5.30646"
         sodipodi:open="true" />
      <path
         id="path884"
         d="m 126.83385,144.04263 h 17.05287"
         style="fill:none;stroke:#aaccff;stroke-width:3.53;stroke-linecap:butt;stroke-linejoin:miter;stroke-miterlimit:4;stroke-dasharray:none;stroke-opacity:1" />
      <g
         transform="translate(-32.54375,63.499998)"
         id="g921">
        <circle
           r="8.5004263"
           cy="48.270531"
           cx="-166.13742"
           id="circle870"
           style="fill:none;stroke:#000000;stroke-width:0.999149;stroke-linecap:round;stroke-miterlimit:4;stroke-dasharray:none"
           transform="scale(-1,1)" />
        <circle
           style="fill:none;stroke:#000000;stroke-width:1;stroke-linecap:round;stroke-miterlimit:4;stroke-dasharray:none"
           id="circle872"
           cx="-166.13742"
           cy="48.270531"
           r="12.463305"
           transform="scale(-1,1)" />
        <path
           style="fill:#000000;stroke:#ffffff;stroke-width:1;stroke-linecap:butt;stroke-linejoin:miter;stroke-miterlimit:4;stroke-dasharray:none;stroke-opacity:1"
           d="m 166.13244,48.380252 c 0,0 -5.38762,-14.62354 -14.31567,-14.16174 -8.92806,0.46178 -7.6966,9.08199 -7.6966,9.08199 0,0 -0.46179,3.69436 4.46403,2.9247 4.92582,-0.76966 12.31455,1.23144 14.00781,2.61685 1.69325,1.38537 3.54043,-0.4618 3.54043,-0.4618 z"
           id="path860" />
        <path
           style="fill:#000000;stroke:#ffffff;stroke-width:1;stroke-linecap:butt;stroke-linejoin:miter;stroke-miterlimit:4;stroke-dasharray:none;stroke-opacity:1"
           d="m 166.13244,48.380252 c 0,0 -9.97053,11.977567 -5.10658,19.478597 4.86394,7.50103 11.71353,2.12445 11.71353,2.12445 0,0 3.43031,-1.44725 0.30085,-5.32831 -3.12945,-3.88106 -5.09081,-11.280447 -4.73765,-13.439547 0.35316,-2.15908 -2.17015,-2.83519 -2.17015,-2.83519 z"
           id="path866" />
        <path
           id="path864"
           d="m 166.13244,48.380252 c 0,0 15.35816,2.64595 19.42227,-5.31686 4.0641,-7.96282 -4.01694,-11.20645 -4.01694,-11.20645 0,0 -2.96851,-2.2471 -4.76488,2.40362 -1.79637,4.65071 -7.22375,10.04899 -9.27016,10.82269 -2.0464,0.77371 -1.37029,3.297 -1.37029,3.297 z"
           style="fill:#000000;stroke:#ffffff;stroke-width:1;stroke-linecap:butt;stroke-linejoin:miter;stroke-miterlimit:4;stroke-dasharray:none;stroke-opacity:1" />
        <circle
           style="fill:#000000;stroke:#ffffff;stroke-width:1.41215;stroke-linecap:round"
           id="path862"
           cx="-166.13742"
           cy="48.270531"
           r="5"
           transform="scale(-1,1)" />
        <circle
           r="16.468136"
           cy="48.270531"
           cx="-166.13742"
           id="circle874"
           style="fill:none;stroke:#000000;stroke-width:1;stroke-linecap:round;stroke-miterlimit:4;stroke-dasharray:none"
           transform="scale(-1,1)" />
      </g>
    </g>
  </g>
</svg>
