<?xml version="1.0" encoding="UTF-8" standalone="no"?>
<svg
   xmlns:dc="http://purl.org/dc/elements/1.1/"
   xmlns:cc="http://creativecommons.org/ns#"
   xmlns:rdf="http://www.w3.org/1999/02/22-rdf-syntax-ns#"
   xmlns:svg="http://www.w3.org/2000/svg"
   xmlns="http://www.w3.org/2000/svg"
   xmlns:xlink="http://www.w3.org/1999/xlink"
   xmlns:sodipodi="http://sodipodi.sourceforge.net/DTD/sodipodi-0.dtd"
   xmlns:inkscape="http://www.inkscape.org/namespaces/inkscape"
   width="120mm"
   height="120mm"
   viewBox="0 0 120 120"
   version="1.1"
   id="svg103"
   inkscape:version="1.0 (4035a4fb49, 2020-05-01)"
   sodipodi:docname="HPDualSourceSingleSink.svg"
   inkscape:export-filename="C:\Daten\GIT\pytrnsys_gui\trnsysGUI\images\HPDoubleDual.png"
   inkscape:export-xdpi="96"
   inkscape:export-ydpi="96">
  <defs
     id="defs97">
    <linearGradient
       inkscape:collect="always"
       id="linearGradient894">
      <stop
         style="stop-color:#aaccff;stop-opacity:1"
         offset="0"
         id="stop890" />
      <stop
         style="stop-color:#0000ff;stop-opacity:1"
         offset="1"
         id="stop892" />
    </linearGradient>
    <linearGradient
       inkscape:collect="always"
       id="linearGradient1046">
      <stop
         style="stop-color:#0000ff;stop-opacity:1"
         offset="0"
         id="stop1042" />
      <stop
         style="stop-color:#ff0000;stop-opacity:1"
         offset="1"
         id="stop1044" />
    </linearGradient>
    <linearGradient
       inkscape:collect="always"
       id="linearGradient858">
      <stop
         style="stop-color:#cccccc;stop-opacity:1"
         offset="0"
         id="stop854" />
      <stop
         style="stop-color:#666666;stop-opacity:1"
         offset="1"
         id="stop856" />
    </linearGradient>
    <linearGradient
       inkscape:collect="always"
       id="linearGradient850">
      <stop
         style="stop-color:#000000;stop-opacity:1"
         offset="0"
         id="stop846" />
      <stop
         style="stop-color:#4d4d4d;stop-opacity:1"
         offset="1"
         id="stop848" />
    </linearGradient>
    <clipPath
       clipPathUnits="userSpaceOnUse"
       id="clipPath840">
      <rect
         style="fill:#ffff00;fill-rule:evenodd;stroke:none;stroke-width:0.293198"
         id="rect842"
         width="60"
         height="120"
         x="34.494049"
         y="73.803574" />
    </clipPath>
    <linearGradient
       inkscape:collect="always"
       xlink:href="#linearGradient850"
       id="linearGradient852"
       x1="94.289253"
       y1="184.07141"
       x2="94.494049"
       y2="84.096718"
       gradientUnits="userSpaceOnUse" />
    <linearGradient
       inkscape:collect="always"
       xlink:href="#linearGradient858"
       id="linearGradient860"
       x1="87.31559"
       y1="88.670219"
       x2="87.674248"
       y2="179.53841"
       gradientUnits="userSpaceOnUse" />
    <linearGradient
       gradientTransform="matrix(0.62976065,0,0,0.62976065,46.99543,64.367424)"
       y2="166.65747"
       x2="118.62262"
       y1="101.07861"
       x1="118.98284"
       gradientUnits="userSpaceOnUse"
       id="linearGradient912"
       xlink:href="#linearGradient1046"
       inkscape:collect="always" />
    <linearGradient
       y2="166.65747"
       x2="118.62262"
       y1="101.07861"
       x1="118.98284"
       gradientTransform="matrix(0.61722841,0,0,0.61722841,76.462699,46.496209)"
       gradientUnits="userSpaceOnUse"
       id="linearGradient937"
       xlink:href="#linearGradient1046"
       inkscape:collect="always" />
    <linearGradient
       y2="190.01964"
       x2="95.474785"
       y1="162.16316"
       x1="103.97961"
       gradientTransform="matrix(0.61722841,0,0,-0.61722841,48.702909,221.03015)"
       gradientUnits="userSpaceOnUse"
       id="linearGradient979"
       xlink:href="#linearGradient1046"
       inkscape:collect="always" />
    <linearGradient
       y2="198.37857"
       x2="118.40829"
       y1="165.37814"
       x1="118.76851"
       gradientTransform="matrix(-0.61722841,0,0,0.61722841,140.54227,46.626975)"
       gradientUnits="userSpaceOnUse"
       id="linearGradient888"
       xlink:href="#linearGradient894"
       inkscape:collect="always" />
    <linearGradient
       gradientTransform="translate(0.02446634,0.17550296)"
       inkscape:collect="always"
       xlink:href="#linearGradient1046-9"
       id="linearGradient1048"
       x1="118.41589"
       y1="166.84647"
       x2="119.4172"
       y2="101.64557"
       gradientUnits="userSpaceOnUse" />
    <linearGradient
       inkscape:collect="always"
       id="linearGradient1046-9">
      <stop
         style="stop-color:#ffaaaa;stop-opacity:1"
         offset="0"
         id="stop1042-8" />
      <stop
         style="stop-color:#ff0000;stop-opacity:1"
         offset="1"
         id="stop1044-2" />
    </linearGradient>
  </defs>
  <sodipodi:namedview
     id="base"
     pagecolor="#ffffff"
     bordercolor="#666666"
     borderopacity="1.0"
     inkscape:pageopacity="0.0"
     inkscape:pageshadow="2"
     inkscape:zoom="2"
     inkscape:cx="176.77303"
     inkscape:cy="227.85555"
     inkscape:document-units="mm"
     inkscape:current-layer="layer1"
     inkscape:document-rotation="0"
     showgrid="false"
     fit-margin-top="0"
     fit-margin-left="0"
     fit-margin-right="0"
     fit-margin-bottom="0"
     inkscape:window-width="1920"
     inkscape:window-height="1017"
     inkscape:window-x="1912"
     inkscape:window-y="-8"
     inkscape:window-maximized="1" />
  <metadata
     id="metadata100">
    <rdf:RDF>
      <cc:Work
         rdf:about="">
        <dc:format>image/svg+xml</dc:format>
        <dc:type
           rdf:resource="http://purl.org/dc/dcmitype/StillImage" />
        <dc:title />
      </cc:Work>
    </rdf:RDF>
  </metadata>
  <g
     inkscape:label="Ebene 1"
     inkscape:groupmode="layer"
     id="layer1"
     transform="translate(-34.494049,-73.803574)">
    <rect
       style="fill:none;stroke:url(#linearGradient860);stroke-width:3.85256;stroke-linecap:round;stroke-linejoin:miter;stroke-miterlimit:4;stroke-dasharray:none"
       id="rect836"
       width="76.147438"
       height="96.147438"
       x="56.150059"
       y="85.72686"
       ry="18.865654"
       clip-path="url(#clipPath840)" />
    <g
       id="g921"
       transform="matrix(-1,0,0,1,221.82525,63.499998)">
      <circle
         transform="scale(-1,1)"
         style="fill:none;stroke:#000000;stroke-width:0.999149;stroke-linecap:round;stroke-miterlimit:4;stroke-dasharray:none"
         id="circle870"
         cx="-166.13742"
         cy="48.270531"
         r="8.5004263" />
      <circle
         transform="scale(-1,1)"
         r="12.463305"
         cy="48.270531"
         cx="-166.13742"
         id="circle872"
         style="fill:none;stroke:#000000;stroke-width:1;stroke-linecap:round;stroke-miterlimit:4;stroke-dasharray:none" />
      <path
         id="path860"
         d="m 166.13244,48.380252 c 0,0 -5.38762,-14.62354 -14.31567,-14.16174 -8.92806,0.46178 -7.6966,9.08199 -7.6966,9.08199 0,0 -0.46179,3.69436 4.46403,2.9247 4.92582,-0.76966 12.31455,1.23144 14.00781,2.61685 1.69325,1.38537 3.54043,-0.4618 3.54043,-0.4618 z"
         style="fill:#000000;stroke:#ffffff;stroke-width:1;stroke-linecap:butt;stroke-linejoin:miter;stroke-miterlimit:4;stroke-dasharray:none;stroke-opacity:1" />
      <path
         id="path866"
         d="m 166.13244,48.380252 c 0,0 -9.97053,11.977567 -5.10658,19.478597 4.86394,7.50103 11.71353,2.12445 11.71353,2.12445 0,0 3.43031,-1.44725 0.30085,-5.32831 -3.12945,-3.88106 -5.09081,-11.280447 -4.73765,-13.439547 0.35316,-2.15908 -2.17015,-2.83519 -2.17015,-2.83519 z"
         style="fill:#000000;stroke:#ffffff;stroke-width:1;stroke-linecap:butt;stroke-linejoin:miter;stroke-miterlimit:4;stroke-dasharray:none;stroke-opacity:1" />
      <path
         style="fill:#000000;stroke:#ffffff;stroke-width:1;stroke-linecap:butt;stroke-linejoin:miter;stroke-miterlimit:4;stroke-dasharray:none;stroke-opacity:1"
         d="m 166.13244,48.380252 c 0,0 15.35816,2.64595 19.42227,-5.31686 4.0641,-7.96282 -4.01694,-11.20645 -4.01694,-11.20645 0,0 -2.96851,-2.2471 -4.76488,2.40362 -1.79637,4.65071 -7.22375,10.04899 -9.27016,10.82269 -2.0464,0.77371 -1.37029,3.297 -1.37029,3.297 z"
         id="path864" />
      <circle
         transform="scale(-1,1)"
         r="5"
         cy="48.270531"
         cx="-166.13742"
         id="path862"
         style="fill:#000000;stroke:#ffffff;stroke-width:1.41215;stroke-linecap:round" />
      <circle
         transform="scale(-1,1)"
         style="fill:none;stroke:#000000;stroke-width:1;stroke-linecap:round;stroke-miterlimit:4;stroke-dasharray:none"
         id="circle874"
         cx="-166.13742"
         cy="48.270531"
         r="16.468136" />
    </g>
    <path
       style="fill:none;stroke:#aaccff;stroke-width:3.53;stroke-linecap:butt;stroke-linejoin:miter;stroke-miterlimit:4;stroke-dasharray:none;stroke-opacity:1"
       d="M 62.44765,144.04263 H 45.39478"
       id="path884" />
    <rect
       clip-path="url(#clipPath840)"
       ry="18.865654"
       y="85.72686"
       x="56.150059"
       height="96.147438"
       width="76.147438"
       id="rect844"
       style="fill:none;stroke:url(#linearGradient852);stroke-width:3.85256;stroke-linecap:round;stroke-linejoin:miter;stroke-miterlimit:4;stroke-dasharray:none"
       transform="matrix(-1,0,0,1,188.44756,0)" />
    <rect
       style="fill:#ffffff;stroke:none;stroke-width:1;stroke-linecap:round;stroke-linejoin:miter;stroke-miterlimit:4;stroke-dasharray:none;stroke-opacity:1"
       id="rect1072"
       width="12.662203"
       height="5.1026788"
       x="87.674248"
       y="179.53841" />
    <path
       id="path878"
       style="fill:none;stroke:url(#linearGradient888);stroke-width:3.53;stroke-linecap:butt;stroke-linejoin:miter;stroke-miterlimit:4;stroke-dasharray:none;stroke-opacity:1"
       d="m 62.51092,153.93434 a 4.9406039,4.946654 0 0 0 4.27292,-2.52964 4.9406039,4.946654 0 0 0 -0.0788,-4.96943 4.9406039,4.946654 0 0 0 -4.35093,-2.39264 m 0.31362,29.74316 a 4.9406039,4.946654 0 0 0 4.27292,-2.52964 4.9406039,4.946654 0 0 0 -0.0788,-4.96943 4.9406039,4.946654 0 0 0 -4.35093,-2.39264 m -10.24691,-9.99212 a 4.9406039,4.946654 0 0 0 -4.27292,2.52964 4.9406039,4.946654 0 0 0 0.0788,4.96943 4.9406039,4.946654 0 0 0 4.35093,2.39264 m 10.18459,-9.85933 H 51.96032 m 10.89903,19.91922 H 34.75113 M 62.60541,163.79959 H 51.96032" />
    <path
       d="m -153.80357,-34.787446 a 5.3189349,5.318253 0 0 1 5.30877,-5.306455"
       style="fill:none;stroke:#aaccff;stroke-width:3.53;stroke-linecap:butt;stroke-miterlimit:4;stroke-dasharray:none;stroke-opacity:1"
       id="path880"
       sodipodi:type="arc"
       sodipodi:cx="-148.48465"
       sodipodi:cy="-34.775658"
       sodipodi:rx="5.3189349"
       sodipodi:ry="5.318253"
       sodipodi:start="3.1438092"
       sodipodi:end="4.7104808"
       sodipodi:arc-type="arc"
       sodipodi:open="true"
       transform="matrix(0,-1,-1,0,0,0)" />
    <path
       d="m 144.10404,45.400359 a 5.3189349,5.318253 0 0 1 5.30877,-5.306455"
       sodipodi:open="true"
       sodipodi:arc-type="arc"
       sodipodi:end="4.7104808"
       sodipodi:start="3.1438092"
       sodipodi:ry="5.318253"
       sodipodi:rx="5.3189349"
       sodipodi:cy="45.412148"
       sodipodi:cx="149.42296"
       sodipodi:type="arc"
       id="path882"
       style="fill:none;stroke:#aaccff;stroke-width:3.53;stroke-linecap:butt;stroke-miterlimit:4;stroke-dasharray:none;stroke-opacity:1"
       transform="matrix(0,1,1,0,0,0)" />
    <circle
       style="fill:#ffffff;stroke:#000000;stroke-width:1;stroke-linecap:round;stroke-linejoin:miter;stroke-miterlimit:4;stroke-dasharray:none;stroke-opacity:1"
       id="path1056-1"
       cx="94.025299"
       cy="85.84211"
       r="9.5959501" />
    <path
       id="path873"
       d="m 87.524111,78.800481 14.298319,1.48439"
       style="fill:none;stroke:#000000;stroke-width:1;stroke-linecap:butt;stroke-linejoin:miter;stroke-miterlimit:4;stroke-dasharray:none;stroke-opacity:1" />
    <path
       style="fill:none;stroke:#000000;stroke-width:1;stroke-linecap:butt;stroke-linejoin:miter;stroke-miterlimit:4;stroke-dasharray:none;stroke-opacity:1"
       d="M 87.524111,92.785462 101.82243,91.301091"
       id="path875" />
    <g
       id="g879"
       transform="translate(2.4252478,0.21515476)">
      <path
         id="path867"
         d="m 94.12276,181.88393 7.23219,-4.69689 0.007,9.56836 z"
         style="fill:#ffffff;stroke:#000000;stroke-width:1;stroke-linecap:butt;stroke-linejoin:round;stroke-miterlimit:4;stroke-dasharray:none;stroke-opacity:1" />
      <path
         id="path871"
         d="m 94.12276,181.88393 -12.410667,7.89709 -3e-6,-15.93536 z"
         style="fill:#ffffff;stroke:#000000;stroke-width:1;stroke-linecap:butt;stroke-linejoin:round;stroke-miterlimit:4;stroke-dasharray:none;stroke-opacity:1" />
    </g>
    <path
       id="path914"
       style="fill:none;stroke:url(#linearGradient1048);stroke-width:3.52999;stroke-linecap:butt;stroke-linejoin:miter;stroke-miterlimit:4;stroke-dasharray:none;stroke-opacity:1"
       d="m 126.44662,174.02906 h 28.10822 M 127.63579,93.87134 h 26.90551 m -27.01768,16.02604 a 8.0044986,8.0143003 0 0 1 -6.92271,-4.09839 8.0044986,8.0143003 0 0 1 0.12758,-8.05119 8.0044986,8.0143003 0 0 1 7.04906,-3.87646 m -0.25394,16.02606 h 10.64509 m 0,0 a 8.0044986,8.0143003 0 0 1 6.92271,4.09839 8.0044986,8.0143003 0 0 1 -0.12758,8.05119 8.0044986,8.0143003 0 0 1 -7.04906,3.87646 m -10.89903,16.02604 a 8.0044986,8.0143003 0 0 1 -6.9227,-4.09839 8.0044986,8.0143003 0 0 1 0.12757,-8.05119 8.0044986,8.0143003 0 0 1 7.04907,-3.87646 m 10.3299,16.05353 a 8.0044986,8.0143003 0 0 1 6.92271,4.09839 8.0044986,8.0143003 0 0 1 -0.12758,8.0512 8.0044986,8.0143003 0 0 1 -7.04907,3.87646 m -10.89902,16.02604 a 8.0044986,8.0143003 0 0 1 -6.9227,-4.09839 8.0044986,8.0143003 0 0 1 0.12757,-8.0512 8.0044986,8.0143003 0 0 1 7.04907,-3.87646 m 0,0 h 10.64509 m -10.32991,-16.05352 h 10.64509 m -10.39115,-16.02605 h 10.64509" />
  </g>
</svg>
