<?xml version="1.0" encoding="UTF-8" standalone="no"?>
<svg
   xmlns:dc="http://purl.org/dc/elements/1.1/"
   xmlns:cc="http://creativecommons.org/ns#"
   xmlns:rdf="http://www.w3.org/1999/02/22-rdf-syntax-ns#"
   xmlns:svg="http://www.w3.org/2000/svg"
   xmlns="http://www.w3.org/2000/svg"
   xmlns:xlink="http://www.w3.org/1999/xlink"
   xmlns:sodipodi="http://sodipodi.sourceforge.net/DTD/sodipodi-0.dtd"
   xmlns:inkscape="http://www.inkscape.org/namespaces/inkscape"
   inkscape:export-ydpi="96"
   inkscape:export-xdpi="96"
   inkscape:export-filename="C:\Daten\GIT\pytrnsys_gui\trnsysGUI\images\HPTwoHx.png"
   sodipodi:docname="HPTwoHx.svg"
   inkscape:version="1.0 (4035a4fb49, 2020-05-01)"
   id="svg103"
   version="1.1"
   viewBox="0 0 120 120"
   height="120mm"
   width="120mm">
  <defs
     id="defs97">
    <linearGradient
       inkscape:collect="always"
       id="linearGradient885">
      <stop
         style="stop-color:#ff0000;stop-opacity:1"
         offset="0"
         id="stop881" />
      <stop
         style="stop-color:#aaccff;stop-opacity:1"
         offset="1"
         id="stop883" />
    </linearGradient>
    <linearGradient
       inkscape:collect="always"
       id="linearGradient879">
      <stop
         style="stop-color:#ff0000;stop-opacity:1"
         offset="0"
         id="stop875" />
      <stop
         style="stop-color:#aaccff;stop-opacity:1"
         offset="1"
         id="stop877" />
    </linearGradient>
    <linearGradient
       inkscape:collect="always"
       id="linearGradient873">
      <stop
         style="stop-color:#aaccff;stop-opacity:1"
         offset="0"
         id="stop869" />
      <stop
         style="stop-color:#0000ff;stop-opacity:1"
         offset="1"
         id="stop871" />
    </linearGradient>
    <linearGradient
       id="linearGradient1046"
       inkscape:collect="always">
      <stop
         id="stop1042"
         offset="0"
         style="stop-color:#0000ff;stop-opacity:1" />
      <stop
         id="stop1044"
         offset="1"
         style="stop-color:#ff0000;stop-opacity:1" />
    </linearGradient>
    <linearGradient
       id="linearGradient858"
       inkscape:collect="always">
      <stop
         id="stop854"
         offset="0"
         style="stop-color:#cccccc;stop-opacity:1" />
      <stop
         id="stop856"
         offset="1"
         style="stop-color:#666666;stop-opacity:1" />
    </linearGradient>
    <linearGradient
       id="linearGradient850"
       inkscape:collect="always">
      <stop
         id="stop846"
         offset="0"
         style="stop-color:#000000;stop-opacity:1" />
      <stop
         id="stop848"
         offset="1"
         style="stop-color:#4d4d4d;stop-opacity:1" />
    </linearGradient>
    <clipPath
       id="clipPath840"
       clipPathUnits="userSpaceOnUse">
      <rect
         y="73.803574"
         x="34.494049"
         height="120"
         width="60"
         id="rect842"
         style="fill:#ffff00;fill-rule:evenodd;stroke:none;stroke-width:0.293198" />
    </clipPath>
    <linearGradient
       gradientUnits="userSpaceOnUse"
       y2="84.096718"
       x2="94.494049"
       y1="184.07141"
       x1="94.289253"
       id="linearGradient852"
       xlink:href="#linearGradient850"
       inkscape:collect="always" />
    <linearGradient
       gradientUnits="userSpaceOnUse"
       y2="84.096718"
       x2="94.683037"
       y1="184.44939"
       x1="94.856216"
       id="linearGradient860"
       xlink:href="#linearGradient858"
       inkscape:collect="always" />
    <linearGradient
       gradientTransform="matrix(-1,0,0,1,189.01088,0.10773661)"
       y2="166.65747"
       x2="118.62262"
       y1="101.07861"
       x1="118.98284"
       gradientUnits="userSpaceOnUse"
       id="linearGradient1054"
       xlink:href="#linearGradient873"
       inkscape:collect="always" />
    <linearGradient
       inkscape:collect="always"
       xlink:href="#linearGradient1046"
       id="linearGradient912"
       gradientUnits="userSpaceOnUse"
       x1="118.98284"
       y1="101.07861"
       x2="118.62262"
       y2="166.65747"
       gradientTransform="matrix(0.62976065,0,0,0.62976065,46.99543,64.367424)" />
    <linearGradient
       inkscape:collect="always"
       xlink:href="#linearGradient879"
       id="linearGradient933"
       gradientUnits="userSpaceOnUse"
       gradientTransform="matrix(0.61722841,0,0,0.61722841,48.73923,46.626975)"
       x1="118.76851"
       y1="165.37814"
       x2="118.40829"
       y2="198.37857" />
    <linearGradient
       inkscape:collect="always"
       xlink:href="#linearGradient1046"
       id="linearGradient937"
       gradientUnits="userSpaceOnUse"
       gradientTransform="matrix(0.61722841,0,0,0.61722841,76.462699,46.496209)"
       x1="118.98284"
       y1="101.07861"
       x2="118.62262"
       y2="166.65747" />
    <linearGradient
       inkscape:collect="always"
       xlink:href="#linearGradient1046"
       id="linearGradient979"
       gradientUnits="userSpaceOnUse"
       gradientTransform="matrix(0.61722841,0,0,-0.61722841,48.702909,221.03015)"
       x1="103.97961"
       y1="162.16316"
       x2="95.474785"
       y2="190.01964" />
    <linearGradient
       inkscape:collect="always"
       xlink:href="#linearGradient885"
       id="linearGradient1004"
       gradientUnits="userSpaceOnUse"
       gradientTransform="matrix(0.61722841,0,0,-0.61722841,48.702909,221.03015)"
       x1="118.7685"
       y1="197.95657"
       x2="119.05128"
       y2="164.72849" />
  </defs>
  <sodipodi:namedview
     inkscape:window-maximized="1"
     inkscape:window-y="-8"
     inkscape:window-x="1912"
     inkscape:window-height="1017"
     inkscape:window-width="1920"
     fit-margin-bottom="0"
     fit-margin-right="0"
     fit-margin-left="0"
     fit-margin-top="0"
     showgrid="false"
     inkscape:document-rotation="0"
     inkscape:current-layer="layer1"
     inkscape:document-units="mm"
     inkscape:cy="244.42409"
     inkscape:cx="176.77303"
     inkscape:zoom="1"
     inkscape:pageshadow="2"
     inkscape:pageopacity="0.0"
     borderopacity="1.0"
     bordercolor="#666666"
     pagecolor="#ffffff"
     id="base" />
  <metadata
     id="metadata100">
    <rdf:RDF>
      <cc:Work
         rdf:about="">
        <dc:format>image/svg+xml</dc:format>
        <dc:type
           rdf:resource="http://purl.org/dc/dcmitype/StillImage" />
        <dc:title />
      </cc:Work>
    </rdf:RDF>
  </metadata>
  <g
     transform="translate(-34.494049,-73.803574)"
     id="layer1"
     inkscape:groupmode="layer"
     inkscape:label="Ebene 1">
    <rect
       clip-path="url(#clipPath840)"
       ry="18.865654"
       y="85.72686"
       x="56.150059"
       height="96.147438"
       width="76.147438"
       id="rect836"
       style="fill:none;stroke:url(#linearGradient860);stroke-width:3.85256;stroke-linecap:round;stroke-linejoin:miter;stroke-miterlimit:4;stroke-dasharray:none" />
    <rect
       transform="matrix(-1,0,0,1,188.44756,0)"
       style="fill:none;stroke:url(#linearGradient852);stroke-width:3.85256;stroke-linecap:round;stroke-linejoin:miter;stroke-miterlimit:4;stroke-dasharray:none"
       id="rect844"
       width="76.147438"
       height="96.147438"
       x="56.150059"
       y="85.72686"
       ry="18.865654"
       clip-path="url(#clipPath840)" />
    <path
       id="path1050"
       style="fill:none;stroke:url(#linearGradient1054);stroke-width:3.53;stroke-linecap:butt;stroke-linejoin:miter;stroke-miterlimit:4;stroke-dasharray:none;stroke-opacity:1"
       d="m 62.588729,173.9613 h -28.10822 m 26.91905,-80.157726 h -26.90551 m 27.01768,16.026046 a 8.0044985,8.0143003 0 0 0 6.92271,-4.09839 8.0044985,8.0143003 0 0 0 -0.12758,-8.051195 8.0044985,8.0143003 0 0 0 -7.04906,-3.876461 m 0.25394,16.026066 h -10.64509 m 0,0 a 8.0044985,8.0143003 0 0 0 -6.92271,4.09839 8.0044985,8.0143003 0 0 0 0.12758,8.05119 8.0044985,8.0143003 0 0 0 7.04906,3.87646 m 10.89903,16.02604 a 8.0044985,8.0143003 0 0 0 6.9227,-4.09839 8.0044985,8.0143003 0 0 0 -0.12757,-8.05119 8.0044985,8.0143003 0 0 0 -7.04907,-3.87646 m -10.3299,16.05353 a 8.0044985,8.0143003 0 0 0 -6.9227,4.09839 8.0044985,8.0143003 0 0 0 0.12757,8.0512 8.0044985,8.0143003 0 0 0 7.04907,3.87646 m 10.89902,16.02604 a 8.0044985,8.0143003 0 0 0 6.9227,-4.09839 8.0044985,8.0143003 0 0 0 -0.12757,-8.0512 8.0044985,8.0143003 0 0 0 -7.04907,-3.87646 m 0,0 h -10.64509 m 10.32991,-16.05352 h -10.64509 m 10.39115,-16.02605 h -10.64509" />
    <circle
       r="9.5959501"
       cy="181.94254"
       cx="94.478867"
       id="path1056"
       style="fill:#ffffff;stroke:#000000;stroke-width:1;stroke-linecap:round;stroke-linejoin:miter;stroke-miterlimit:4;stroke-dasharray:none;stroke-opacity:1" />
    <path
       id="path1058"
       d="M 107.15997,181.89465 87.97768,174.90209"
       style="fill:none;stroke:#000000;stroke-width:1;stroke-linecap:butt;stroke-linejoin:miter;stroke-miterlimit:4;stroke-dasharray:none;stroke-opacity:1" />
    <path
       style="fill:none;stroke:#000000;stroke-width:1;stroke-linecap:butt;stroke-linejoin:miter;stroke-miterlimit:4;stroke-dasharray:none;stroke-opacity:1"
       d="m 107.15997,181.89465 -19.18229,6.99256"
       id="path1060" />
    <rect
       y="83.063995"
       x="88.261162"
       height="5.1026788"
       width="12.662203"
       id="rect1072"
       style="fill:#ffffff;stroke:none;stroke-width:1;stroke-linecap:round;stroke-linejoin:miter;stroke-miterlimit:4;stroke-dasharray:none;stroke-opacity:1" />
    <path
       id="path1066"
       d="M 80.317993,76.775703 108.52635,94.98406 V 76.775703 L 80.317993,94.98406 V 76.775703"
       style="fill:none;stroke:#000000;stroke-width:1;stroke-linecap:butt;stroke-linejoin:miter;stroke-miterlimit:4;stroke-dasharray:none;stroke-opacity:1" />
    <path
       id="path1068"
       d="m 101.76787,89.955717 c -3.378161,-2.180385 -6.172704,-3.99446 -6.210092,-4.031266 -0.03739,-0.03681 2.719478,-1.866204 6.126372,-4.065327 3.40689,-2.199124 6.21231,-3.980451 6.23425,-3.958505 0.0219,0.02195 0.029,3.635306 0.0157,8.029689 l -0.0242,7.989748 z"
       style="fill:#ffffff;stroke:none;stroke-width:0.357143;stroke-linecap:round;stroke-linejoin:miter;stroke-miterlimit:4;stroke-dasharray:none;stroke-opacity:1" />
    <path
       id="path1070"
       d="M 80.837441,85.866169 V 77.77615 l 0.496094,0.317956 c 0.272851,0.174875 2.856082,1.842038 5.740511,3.704804 2.884432,1.862767 5.48903,3.54183 5.787998,3.731251 l 0.543579,0.344402 -6.206657,4.009297 c -3.413662,2.205115 -6.241502,4.023466 -6.284092,4.040786 -0.04259,0.0173 -0.07743,-3.608989 -0.07743,-8.058477 z"
       style="fill:#ffffff;stroke:none;stroke-width:0.357143;stroke-linecap:round;stroke-linejoin:miter;stroke-miterlimit:4;stroke-dasharray:none;stroke-opacity:1" />
    <g
       id="g967">
      <path
         d="m 126.77058,153.93434 a 4.9406039,4.946654 0 0 1 -4.27292,-2.52964 4.9406039,4.946654 0 0 1 0.0788,-4.96943 4.9406039,4.946654 0 0 1 4.35093,-2.39264 m -0.31362,29.74316 a 4.9406039,4.946654 0 0 1 -4.27292,-2.52964 4.9406039,4.946654 0 0 1 0.0788,-4.96943 4.9406039,4.946654 0 0 1 4.35093,-2.39264 m 10.24691,-9.99212 a 4.9406039,4.946654 0 0 1 4.27292,2.52964 4.9406039,4.946654 0 0 1 -0.0788,4.96943 4.9406039,4.946654 0 0 1 -4.35093,2.39264 m -10.18459,-9.85933 h 10.64509 m -10.89903,19.91922 h 28.10822 m -27.85428,-10.05397 h 10.64509"
         style="fill:none;stroke:url(#linearGradient933);stroke-width:3.53;stroke-linecap:butt;stroke-linejoin:miter;stroke-miterlimit:4;stroke-dasharray:none;stroke-opacity:1"
         id="path931" />
      <path
         transform="rotate(-90)"
         sodipodi:open="true"
         d="m -153.80357,154.49406 a 5.3189349,5.318253 0 0 1 5.30877,-5.30646"
         sodipodi:arc-type="arc"
         sodipodi:end="4.7104808"
         sodipodi:start="3.1438092"
         sodipodi:ry="5.318253"
         sodipodi:rx="5.3189349"
         sodipodi:cy="154.50584"
         sodipodi:cx="-148.48465"
         sodipodi:type="arc"
         id="path953"
         style="fill:none;stroke:#ff0000;stroke-width:3.53;stroke-linecap:butt;stroke-miterlimit:4;stroke-dasharray:none;stroke-opacity:1" />
      <path
         transform="rotate(90)"
         style="fill:none;stroke:#ff0000;stroke-width:3.53;stroke-linecap:butt;stroke-miterlimit:4;stroke-dasharray:none;stroke-opacity:1"
         id="path955"
         sodipodi:type="arc"
         sodipodi:cx="149.42296"
         sodipodi:cy="-143.86935"
         sodipodi:rx="5.3189349"
         sodipodi:ry="5.318253"
         sodipodi:start="3.1438092"
         sodipodi:end="4.7104808"
         sodipodi:arc-type="arc"
         d="m 144.10404,-143.88114 a 5.3189349,5.318253 0 0 1 5.30877,-5.30646"
         sodipodi:open="true" />
      <path
         id="path957"
         d="m 126.83385,144.04263 h 17.05287"
         style="fill:none;stroke:#ff0000;stroke-width:3.53;stroke-linecap:butt;stroke-linejoin:miter;stroke-miterlimit:4;stroke-dasharray:none;stroke-opacity:1" />
    </g>
    <path
       style="fill:none;stroke:#ff0000;stroke-width:3.53;stroke-linecap:butt;stroke-linejoin:miter;stroke-miterlimit:4;stroke-dasharray:none;stroke-opacity:1"
       d="m 126.38583,93.80357 h 28.10822"
       id="path999" />
    <path
       id="path969"
       style="fill:none;stroke:url(#linearGradient1004);stroke-width:3.53;stroke-linecap:butt;stroke-linejoin:miter;stroke-miterlimit:4;stroke-dasharray:none;stroke-opacity:1"
       d="m 126.73426,113.72279 a 4.9406039,4.946654 0 0 0 -4.27292,2.52964 4.9406039,4.946654 0 0 0 0.0788,4.96943 4.9406039,4.946654 0 0 0 4.35093,2.39264 m -0.31362,-29.74316 a 4.9406039,4.946654 0 0 0 -4.27292,2.52964 4.9406039,4.946654 0 0 0 0.0788,4.96943 4.9406039,4.946654 0 0 0 4.35093,2.39264 m 10.24691,9.99212 a 4.9406039,4.946654 0 0 0 4.27292,-2.52964 4.9406039,4.946654 0 0 0 -0.0788,-4.96943 4.9406039,4.946654 0 0 0 -4.35093,-2.39264 m -10.18459,9.85933 h 10.64509 m -10.64509,-9.86525 h 10.64509" />
    <path
       d="m 154.45774,113.85356 a 5.318253,5.3189349 0 0 0 -5.30646,5.30877"
       style="fill:none;stroke:#aaccff;stroke-width:3.53;stroke-linecap:butt;stroke-miterlimit:4;stroke-dasharray:none;stroke-opacity:1"
       id="path971" />
    <path
       d="m 143.84482,123.55309 a 5.318253,5.3189349 0 0 0 5.30646,-5.30877"
       style="fill:none;stroke:#aaccff;stroke-width:3.53;stroke-linecap:butt;stroke-miterlimit:4;stroke-dasharray:none;stroke-opacity:1"
       id="path973" />
    <path
       id="path975"
       d="M 126.79753,123.6145 H 143.8504"
       style="fill:none;stroke:#aaccff;stroke-width:3.53;stroke-linecap:butt;stroke-linejoin:miter;stroke-miterlimit:4;stroke-dasharray:none;stroke-opacity:1" />
  </g>
</svg>
