<?xml version="1.0" encoding="UTF-8" standalone="no"?>
<svg
   xmlns:dc="http://purl.org/dc/elements/1.1/"
   xmlns:cc="http://creativecommons.org/ns#"
   xmlns:rdf="http://www.w3.org/1999/02/22-rdf-syntax-ns#"
   xmlns:svg="http://www.w3.org/2000/svg"
   xmlns="http://www.w3.org/2000/svg"
   xmlns:sodipodi="http://sodipodi.sourceforge.net/DTD/sodipodi-0.dtd"
   xmlns:inkscape="http://www.inkscape.org/namespaces/inkscape"
   height="300.6785"
   width="323.6662"
   version="1.1"
   id="Ebene_1"
   x="0px"
   y="0px"
   viewBox="30 20 323.66618 300.67849"
   xml:space="preserve"
   enable-background="new 0 0 340.2 340.2"
   sodipodi:docname="IceStorageTemp2.svg"
   inkscape:version="1.0 (4035a4fb49, 2020-05-01)"><metadata
   id="metadata179"><rdf:RDF><cc:Work
       rdf:about=""><dc:format>image/svg+xml</dc:format><dc:type
         rdf:resource="http://purl.org/dc/dcmitype/StillImage" /><dc:title></dc:title></cc:Work></rdf:RDF></metadata><defs
   id="defs177">
    
    
  
      <sodipodi:namedview
   bordercolor="#666666"
   borderopacity="1.0"
   id="base"
   inkscape:current-layer="g3350"
   inkscape:cx="412.05395"
   inkscape:cy="254.85239"
   inkscape:document-units="cm"
   inkscape:pageopacity="0.0"
   inkscape:pageshadow="2"
   inkscape:window-height="1138"
   inkscape:window-maximized="1"
   inkscape:window-width="1920"
   inkscape:window-x="-8"
   inkscape:window-y="-8"
   inkscape:zoom="1.4"
   pagecolor="#ffffff"
   showgrid="true"
   showguides="false"
   units="cm">
        <inkscape:grid
   id="grid7268"
   type="xygrid" />
      </sodipodi:namedview>
      
    
          
          
          
          <linearGradient
   gradientTransform="matrix(1.1840154,0,0,1.3345637,-251.78695,-639.89743)"
   y2="965.76129"
   x2="315.84781"
   y1="1195.7793"
   x1="315.84781"
   gradientUnits="userSpaceOnUse"
   id="path65415_1_">
            <stop
   id="stop9"
   stop-color="#0A00E9"
   offset="0" />
            <stop
   id="stop11"
   style="stop-color:#BDBDBD;stop-opacity:0.75"
   offset="1" />
          </linearGradient>
          
          
          
          
        </defs><sodipodi:namedview
   fit-margin-bottom="0"
   fit-margin-right="0"
   fit-margin-left="0"
   fit-margin-top="0"
   inkscape:document-rotation="0"
   pagecolor="#ffffff"
   bordercolor="#666666"
   borderopacity="1"
   objecttolerance="10"
   gridtolerance="10"
   guidetolerance="10"
   inkscape:pageopacity="0"
   inkscape:pageshadow="2"
   inkscape:window-width="2400"
   inkscape:window-height="1271"
   id="namedview175"
   showgrid="false"
   inkscape:zoom="2.5921298"
   inkscape:cx="93.365753"
   inkscape:cy="155.90121"
   inkscape:window-x="2391"
   inkscape:window-y="-9"
   inkscape:window-maximized="1"
   inkscape:current-layer="layer1" />
  <style
   type="text/css"
   id="style2">
    
	.st0{fill:#EDEDED;stroke:#000000;stroke-width:0.2;stroke-miterlimit:10;}
	.st1{fill:#FFFFFF;stroke:#000000;stroke-width:0.897;}
	.st2{fill:url(#path65415_1_);}
	.st3{fill:none;stroke:#000000;stroke-width:4;}
	.st4{stroke:#000000;stroke-linejoin:round;}

  </style>
  <g
   id="layer1"
   transform="translate(69.462013,-636.51031)"
   inkscape:groupmode="layer"
   inkscape:label="Ebene 1">
        <ellipse
   ry="15.453545"
   rx="88.471916"
   cy="705.20569"
   cx="121.8931"
   class="st0"
   id="path65386" /><ellipse
   style="stroke-width:1.11866"
   ry="15.453545"
   rx="88.471916"
   cy="938.12061"
   cx="122.34334"
   id="path65386-2" /><path
   d="m 33.646304,705.5392 v 231.46964 c 7.428939,26.23767 169.627456,26.23767 177.056396,0 V 705.5392 c -2.58888,7.56001 -23.97522,11.45119 -50.87698,13.45236 -17.55932,1.33412 -37.36982,2.33471 -56.16729,1.66765 -35.456302,-1.33412 -66.860455,-5.78118 -70.012126,-15.12001 z"
   class="st1"
   sodipodi:nodetypes="ccccssc"
   inkscape:connector-curvature="0"
   id="path65403" /><path
   d="m 105.00915,955.79768 c -0.78792,0 -4.05215,-0.22235 -7.203823,-0.44471 -33.655347,-2.00118 -58.19336,-8.56059 -62.808307,-16.78766 l -0.787918,-1.4453 V 822.38578 707.54038 l 0.900478,1.00059 c 5.627984,5.89235 23.637534,9.78353 54.929128,12.11824 25.888732,1.89 66.410222,0.44471 91.961262,-3.33529 14.06997,-2.00118 23.7501,-5.11413 27.23945,-8.5606 l 0.78792,-0.77824 0.11256,114.73423 0.11256,114.73423 -0.67536,1.22295 c -1.46328,2.55706 -6.07822,5.78118 -11.59365,7.89353 -12.26901,4.7806 -30.84135,7.78236 -56.16728,9.22766 -5.06519,0.11118 -32.75487,0.22235 -36.80702,0 z"
   class="st2"
   inkscape:connector-curvature="0"
   id="path65415"
   style="fill:url(#path65415_1_);stroke-width:1.11866" /><rect
   style="stroke-width:1.11866"
   height="37.021801"
   width="13.507163"
   y="669.8515"
   x="145.90137"
   id="rect4983" /><rect
   style="stroke-width:1.06226"
   height="13.341189"
   width="138.03563"
   y="656.51031"
   x="145.90137"
   id="rect4990" /><rect
   style="stroke-width:1.11866"
   height="13.341189"
   width="77.666183"
   y="915.88531"
   x="206.53799"
   id="rect4985" />
      <rect
   transform="scale(-1,1)"
   id="rect1039"
   x="-99.165451"
   y="669.8515"
   width="13.507163"
   height="37.021801"
   style="stroke-width:1.11866" /><rect
   transform="scale(-1,1)"
   id="rect1041"
   x="-99.165451"
   y="656.51031"
   width="138.03563"
   height="13.341189"
   style="stroke-width:1.06226" /><rect
   id="rect1043"
   x="-40.007591"
   y="915.88531"
   width="77.666183"
   height="13.341189"
   style="stroke-width:1.11866" /></g><g
   transform="translate(69.462013,-9.3449549)"
   id="Ebene_2_1_">
      <g
   id="g165">
        <line
   id="line21"
   y2="141.5"
   x2="120.9"
   y1="176.89999"
   x1="120.9"
   class="st3" />
        <line
   id="line23"
   y2="105.1"
   x2="120.9"
   y1="130.7"
   x1="120.9"
   class="st3" />
        <line
   id="line25"
   y2="109.4"
   x2="107.6"
   y1="117.1"
   x1="120.9"
   class="st3" />
        <line
   id="line27"
   y2="131.7"
   x2="99.800003"
   y1="137.2"
   x1="109.5"
   class="st3" />
        <line
   id="line29"
   y2="116.1"
   x2="95.599998"
   y1="130.8"
   x1="120.9"
   class="st3" />
        <line
   id="line31"
   y2="137.2"
   x2="109.5"
   y1="130.8"
   x1="120.9"
   class="st3" />
        <line
   id="line33"
   y2="158.2"
   x2="109.5"
   y1="137.2"
   x1="109.5"
   class="st3" />
        <line
   id="line35"
   y2="212.2"
   x2="120.9"
   y1="176.89999"
   x1="120.9"
   class="st3" />
        <line
   id="line37"
   y2="248.60001"
   x2="120.9"
   y1="222.89999"
   x1="120.9"
   class="st3" />
        <line
   id="line39"
   y2="244.3"
   x2="107.6"
   y1="236.60001"
   x1="120.9"
   class="st3" />
        <line
   id="line41"
   y2="222"
   x2="99.800003"
   y1="216.39999"
   x1="109.5"
   class="st3" />
        <line
   id="line43"
   y2="237.60001"
   x2="95.599998"
   y1="222.89999"
   x1="120.9"
   class="st3" />
        <line
   id="line45"
   y2="216.39999"
   x2="109.5"
   y1="222.89999"
   x1="120.9"
   class="st3" />
        <line
   id="line47"
   y2="197.8"
   x2="109.5"
   y1="216.39999"
   x1="109.5"
   class="st3" />
        <line
   id="line49"
   y2="194.5"
   x2="90.400002"
   y1="176.89999"
   x1="120.9"
   class="st3" />
        <line
   id="line51"
   y2="212.8"
   x2="58.799999"
   y1="199.89999"
   x1="81"
   class="st3" />
        <line
   id="line53"
   y2="199"
   x2="55.900002"
   y1="206.8"
   x1="69.199997"
   class="st3" />
        <line
   id="line55"
   y2="181.2"
   x2="71.300003"
   y1="186.8"
   x1="81"
   class="st3" />
        <line
   id="line57"
   y2="185.3"
   x2="55.700001"
   y1="199.89999"
   x1="81.099998"
   class="st3" />
        <line
   id="line59"
   y2="186.8"
   x2="81"
   y1="199.89999"
   x1="81.099998"
   class="st3" />
        <line
   id="line61"
   y2="177.39999"
   x2="97.199997"
   y1="186.8"
   x1="81"
   class="st3" />
        <line
   id="line63"
   y2="222.2"
   x2="69.199997"
   y1="206.8"
   x1="69.199997"
   class="st3" />
        <line
   id="line65"
   y2="217.7"
   x2="92.400002"
   y1="206.60001"
   x1="92.400002"
   class="st3" />
        <line
   id="line67"
   y2="229.2"
   x2="81"
   y1="199.89999"
   x1="81"
   class="st3" />
        <line
   id="line69"
   y2="206.60001"
   x2="92.400002"
   y1="199.89999"
   x1="81"
   class="st3" />
        <line
   id="line71"
   y2="196.10001"
   x2="110.5"
   y1="206.60001"
   x1="92.400002"
   class="st3" />
        <line
   id="line73"
   y2="159.2"
   x2="90.400002"
   y1="176.8"
   x1="120.9"
   class="st3" />
        <line
   id="line75"
   y2="140.89999"
   x2="58.799999"
   y1="153.8"
   x1="81"
   class="st3" />
        <line
   id="line77"
   y2="131.5"
   x2="69.199997"
   y1="146.89999"
   x1="69.199997"
   class="st3" />
        <line
   id="line79"
   y2="136"
   x2="92.400002"
   y1="147.10001"
   x1="92.400002"
   class="st3" />
        <line
   id="line81"
   y2="124.5"
   x2="81"
   y1="153.8"
   x1="81.099998"
   class="st3" />
        <line
   id="line83"
   y2="147.10001"
   x2="92.400002"
   y1="153.8"
   x1="81.099998"
   class="st3" />
        <line
   id="line85"
   y2="156.5"
   x2="108.6"
   y1="147.10001"
   x1="92.400002"
   class="st3" />
        <line
   id="line87"
   y2="154.60001"
   x2="55.900002"
   y1="146.89999"
   x1="69.199997"
   class="st3" />
        <line
   id="line89"
   y2="172.5"
   x2="71.300003"
   y1="166.89999"
   x1="81"
   class="st3" />
        <line
   id="line91"
   y2="168.39999"
   x2="55.700001"
   y1="153.8"
   x1="81.099998"
   class="st3" />
        <line
   id="line93"
   y2="166.89999"
   x2="81"
   y1="153.8"
   x1="81.099998"
   class="st3" />
        <line
   id="line95"
   y2="177.39999"
   x2="99.199997"
   y1="166.89999"
   x1="81"
   class="st3" />
        <line
   id="line97"
   y2="109.3"
   x2="134.2"
   y1="117"
   x1="120.9"
   class="st3" />
        <line
   id="line99"
   y2="131.60001"
   x2="142"
   y1="137.2"
   x1="132.3"
   class="st3" />
        <line
   id="line101"
   y2="116"
   x2="146.2"
   y1="130.7"
   x1="120.9"
   class="st3" />
        <line
   id="line103"
   y2="137.2"
   x2="132.3"
   y1="130.7"
   x1="120.9"
   class="st3" />
        <line
   id="line105"
   y2="158.10001"
   x2="132.3"
   y1="137.2"
   x1="132.3"
   class="st3" />
        <line
   id="line107"
   y2="244.2"
   x2="134.2"
   y1="236.5"
   x1="120.9"
   class="st3" />
        <line
   id="line109"
   y2="221.89999"
   x2="142"
   y1="216.39999"
   x1="132.3"
   class="st3" />
        <line
   id="line111"
   y2="237.5"
   x2="146.2"
   y1="222.8"
   x1="120.9"
   class="st3" />
        <line
   id="line113"
   y2="216.39999"
   x2="132.3"
   y1="222.8"
   x1="120.9"
   class="st3" />
        <line
   id="line115"
   y2="197.8"
   x2="132.3"
   y1="216.39999"
   x1="132.3"
   class="st3" />
        <line
   id="line117"
   y2="194.5"
   x2="151.39999"
   y1="176.8"
   x1="120.9"
   class="st3" />
        <line
   id="line119"
   y2="212.7"
   x2="183"
   y1="199.89999"
   x1="160.8"
   class="st3" />
        <line
   id="line121"
   y2="199"
   x2="185.89999"
   y1="206.7"
   x1="172.60001"
   class="st3" />
        <line
   id="line123"
   y2="181.10001"
   x2="170.5"
   y1="186.7"
   x1="160.89999"
   class="st3" />
        <line
   id="line125"
   y2="185.3"
   x2="186.10001"
   y1="199.8"
   x1="160.7"
   class="st3" />
        <line
   id="line127"
   y2="186.7"
   x2="160.89999"
   y1="199.8"
   x1="160.7"
   class="st3" />
        <line
   id="line129"
   y2="177.39999"
   x2="144.60001"
   y1="186.7"
   x1="160.89999"
   class="st3" />
        <line
   id="line131"
   y2="222.10001"
   x2="172.60001"
   y1="206.7"
   x1="172.60001"
   class="st3" />
        <line
   id="line133"
   y2="217.7"
   x2="149.39999"
   y1="206.5"
   x1="149.5"
   class="st3" />
        <line
   id="line135"
   y2="229.2"
   x2="160.8"
   y1="199.89999"
   x1="160.8"
   class="st3" />
        <line
   id="line137"
   y2="206.5"
   x2="149.5"
   y1="199.89999"
   x1="160.8"
   class="st3" />
        <line
   id="line139"
   y2="196"
   x2="131.3"
   y1="206.5"
   x1="149.5"
   class="st3" />
        <line
   id="line141"
   y2="159.10001"
   x2="151.39999"
   y1="176.7"
   x1="120.9"
   class="st3" />
        <line
   id="line143"
   y2="140.89999"
   x2="183"
   y1="153.7"
   x1="160.8"
   class="st3" />
        <line
   id="line145"
   y2="131.5"
   x2="172.60001"
   y1="146.89999"
   x1="172.60001"
   class="st3" />
        <line
   id="line147"
   y2="135.89999"
   x2="149.39999"
   y1="147.10001"
   x1="149.39999"
   class="st3" />
        <line
   id="line149"
   y2="124.4"
   x2="160.8"
   y1="153.7"
   x1="160.7"
   class="st3" />
        <line
   id="line151"
   y2="147.10001"
   x2="149.39999"
   y1="153.7"
   x1="160.7"
   class="st3" />
        <line
   id="line153"
   y2="156.39999"
   x2="133.3"
   y1="147.10001"
   x1="149.39999"
   class="st3" />
        <line
   id="line155"
   y2="154.60001"
   x2="185.89999"
   y1="146.89999"
   x1="172.60001"
   class="st3" />
        <line
   id="line157"
   y2="172.39999"
   x2="170.5"
   y1="166.8"
   x1="160.89999"
   class="st3" />
        <line
   id="line159"
   y2="168.3"
   x2="186.10001"
   y1="153.7"
   x1="160.7"
   class="st3" />
        <line
   id="line161"
   y2="166.8"
   x2="160.89999"
   y1="153.7"
   x1="160.7"
   class="st3" />
        <line
   id="line163"
   y2="177.3"
   x2="142.60001"
   y1="166.8"
   x1="160.89999"
   class="st3" />
      </g>
    </g>
  
</svg>
