<svg xmlns="http://www.w3.org/2000/svg" xmlns:xlink="http://www.w3.org/1999/xlink" version="1.1" id="Ebene_1" x="0px" y="0px" viewBox="30 20 260.2 320.2" xml:space="preserve" enable-background="new 0 0 340.2 340.2">
  <style type="text/css">
    
	.st0{fill:#EDEDED;stroke:#000000;stroke-width:0.2;stroke-miterlimit:10;}
	.st1{fill:#FFFFFF;stroke:#000000;stroke-width:0.897;}
	.st2{fill:url(#path65415_1_);}
	.st3{fill:none;stroke:#000000;stroke-width:4;}
	.st4{stroke:#000000;stroke-linejoin:round;}

  </style>
  <g id="Ebene_1_1_">
    <g xmlns:cc="http://creativecommons.org/ns#" xmlns:dc="http://purl.org/dc/elements/1.1/" xmlns:inkscape="http://www.inkscape.org/namespaces/inkscape" xmlns:rdf="http://www.w3.org/1999/02/22-rdf-syntax-ns#" xmlns:sodipodi="http://sodipodi.sourceforge.net/DTD/sodipodi-0.dtd" xmlns:svg="http://www.w3.org/2000/svg" id="svg2" inkscape:version="0.91 r13725" sodipodi:docname="thermischer Speicher2.svg">
      <sodipodi:namedview bordercolor="#666666" borderopacity="1.0" id="base" inkscape:current-layer="g3350" inkscape:cx="412.05395" inkscape:cy="254.85239" inkscape:document-units="cm" inkscape:pageopacity="0.0" inkscape:pageshadow="2" inkscape:window-height="1138" inkscape:window-maximized="1" inkscape:window-width="1920" inkscape:window-x="-8" inkscape:window-y="-8" inkscape:zoom="1.4" pagecolor="#ffffff" showgrid="true" showguides="false" units="cm">
        <inkscape:grid id="grid7268" type="xygrid"/>
      </sodipodi:namedview>
      <g id="layer1" transform="translate(0,-627.16536)" inkscape:groupmode="layer" inkscape:label="Ebene 1">
        <g id="g3350" transform="matrix(1.1255969,0,0,1.1117658,-47.846912,-86.816288)">
          <ellipse id="path65386" class="st0" cx="150.8" cy="712.4" rx="78.6" ry="13.9"/>
          <ellipse id="path65386-2" cx="151.2" cy="921.9" rx="78.6" ry="13.9"/>
          <path id="path65403" inkscape:connector-curvature="0" sodipodi:nodetypes="ccccssc" class="st1" d="M72.4 712.7v208.2c6.6 23.6 150.7 23.6 157.3 0V712.7c-2.3 6.8-21.3 10.3-45.2 12.1 -15.6 1.2-33.2 2.1-49.9 1.5C103.1 725.1 75.2 721.1 72.4 712.7L72.4 712.7z"/>
          <linearGradient id="path65415_1_" gradientUnits="userSpaceOnUse" x1="315.8478" y1="1195.7793" x2="315.8478" y2="965.7613" gradientTransform="matrix(1.0519 0 0 1.2004 -181.1839 -497.4799)">
            <stop offset="0" stop-color="#0A00E9"/>
            <stop offset="1" style="stop-color:#BDBDBD;stop-opacity:0.75"/>
          </linearGradient>
          <path id="path65415" inkscape:connector-curvature="0" class="st2" d="M135.8 937.8c-0.7 0-3.6-0.2-6.4-0.4 -29.9-1.8-51.7-7.7-55.8-15.1l-0.7-1.3V817.8 714.5l0.8 0.9c5 5.3 21 8.8 48.8 10.9 23 1.7 59 0.4 81.7-3 12.5-1.8 21.1-4.6 24.2-7.7l0.7-0.7 0.1 103.2 0.1 103.2 -0.6 1.1c-1.3 2.3-5.4 5.2-10.3 7.1 -10.9 4.3-27.4 7-49.9 8.3C164 937.9 139.4 938 135.8 937.8L135.8 937.8z"/>
          <rect id="rect4983" x="143.7" y="680.6" width="12" height="33.3"/>
          <rect id="rect4990" x="143.7" y="668.6" width="136" height="12"/>
          <rect id="rect4985" x="226" y="901.9" width="69" height="12"/>
        </g>
      </g>
    </g>
    <g id="Ebene_2_1_">
      <g>
        <line class="st3" x1="120.9" y1="176.9" x2="120.9" y2="141.5"/>
        <line class="st3" x1="120.9" y1="130.7" x2="120.9" y2="105.1"/>
        <line class="st3" x1="120.9" y1="117.1" x2="107.6" y2="109.4"/>
        <line class="st3" x1="109.5" y1="137.2" x2="99.8" y2="131.7"/>
        <line class="st3" x1="120.9" y1="130.8" x2="95.6" y2="116.1"/>
        <line class="st3" x1="120.9" y1="130.8" x2="109.5" y2="137.2"/>
        <line class="st3" x1="109.5" y1="137.2" x2="109.5" y2="158.2"/>
        <line class="st3" x1="120.9" y1="176.9" x2="120.9" y2="212.2"/>
        <line class="st3" x1="120.9" y1="222.9" x2="120.9" y2="248.6"/>
        <line class="st3" x1="120.9" y1="236.6" x2="107.6" y2="244.3"/>
        <line class="st3" x1="109.5" y1="216.4" x2="99.8" y2="222"/>
        <line class="st3" x1="120.9" y1="222.9" x2="95.6" y2="237.6"/>
        <line class="st3" x1="120.9" y1="222.9" x2="109.5" y2="216.4"/>
        <line class="st3" x1="109.5" y1="216.4" x2="109.5" y2="197.8"/>
        <line class="st3" x1="120.9" y1="176.9" x2="90.4" y2="194.5"/>
        <line class="st3" x1="81" y1="199.9" x2="58.8" y2="212.8"/>
        <line class="st3" x1="69.2" y1="206.8" x2="55.9" y2="199"/>
        <line class="st3" x1="81" y1="186.8" x2="71.3" y2="181.2"/>
        <line class="st3" x1="81.1" y1="199.9" x2="55.7" y2="185.3"/>
        <line class="st3" x1="81.1" y1="199.9" x2="81" y2="186.8"/>
        <line class="st3" x1="81" y1="186.8" x2="97.2" y2="177.4"/>
        <line class="st3" x1="69.2" y1="206.8" x2="69.2" y2="222.2"/>
        <line class="st3" x1="92.4" y1="206.6" x2="92.4" y2="217.7"/>
        <line class="st3" x1="81" y1="199.9" x2="81" y2="229.2"/>
        <line class="st3" x1="81" y1="199.9" x2="92.4" y2="206.6"/>
        <line class="st3" x1="92.4" y1="206.6" x2="110.5" y2="196.1"/>
        <line class="st3" x1="120.9" y1="176.8" x2="90.4" y2="159.2"/>
        <line class="st3" x1="81" y1="153.8" x2="58.8" y2="140.9"/>
        <line class="st3" x1="69.2" y1="146.9" x2="69.2" y2="131.5"/>
        <line class="st3" x1="92.4" y1="147.1" x2="92.4" y2="136"/>
        <line class="st3" x1="81.1" y1="153.8" x2="81" y2="124.5"/>
        <line class="st3" x1="81.1" y1="153.8" x2="92.4" y2="147.1"/>
        <line class="st3" x1="92.4" y1="147.1" x2="108.6" y2="156.5"/>
        <line class="st3" x1="69.2" y1="146.9" x2="55.9" y2="154.6"/>
        <line class="st3" x1="81" y1="166.9" x2="71.3" y2="172.5"/>
        <line class="st3" x1="81.1" y1="153.8" x2="55.7" y2="168.4"/>
        <line class="st3" x1="81.1" y1="153.8" x2="81" y2="166.9"/>
        <line class="st3" x1="81" y1="166.9" x2="99.2" y2="177.4"/>
        <line class="st3" x1="120.9" y1="117" x2="134.2" y2="109.3"/>
        <line class="st3" x1="132.3" y1="137.2" x2="142" y2="131.6"/>
        <line class="st3" x1="120.9" y1="130.7" x2="146.2" y2="116"/>
        <line class="st3" x1="120.9" y1="130.7" x2="132.3" y2="137.2"/>
        <line class="st3" x1="132.3" y1="137.2" x2="132.3" y2="158.1"/>
        <line class="st3" x1="120.9" y1="236.5" x2="134.2" y2="244.2"/>
        <line class="st3" x1="132.3" y1="216.4" x2="142" y2="221.9"/>
        <line class="st3" x1="120.9" y1="222.8" x2="146.2" y2="237.5"/>
        <line class="st3" x1="120.9" y1="222.8" x2="132.3" y2="216.4"/>
        <line class="st3" x1="132.3" y1="216.4" x2="132.3" y2="197.8"/>
        <line class="st3" x1="120.9" y1="176.8" x2="151.4" y2="194.5"/>
        <line class="st3" x1="160.8" y1="199.9" x2="183" y2="212.7"/>
        <line class="st3" x1="172.6" y1="206.7" x2="185.9" y2="199"/>
        <line class="st3" x1="160.9" y1="186.7" x2="170.5" y2="181.1"/>
        <line class="st3" x1="160.7" y1="199.8" x2="186.1" y2="185.3"/>
        <line class="st3" x1="160.7" y1="199.8" x2="160.9" y2="186.7"/>
        <line class="st3" x1="160.9" y1="186.7" x2="144.6" y2="177.4"/>
        <line class="st3" x1="172.6" y1="206.7" x2="172.6" y2="222.1"/>
        <line class="st3" x1="149.5" y1="206.5" x2="149.4" y2="217.7"/>
        <line class="st3" x1="160.8" y1="199.9" x2="160.8" y2="229.2"/>
        <line class="st3" x1="160.8" y1="199.9" x2="149.5" y2="206.5"/>
        <line class="st3" x1="149.5" y1="206.5" x2="131.3" y2="196"/>
        <line class="st3" x1="120.9" y1="176.7" x2="151.4" y2="159.1"/>
        <line class="st3" x1="160.8" y1="153.7" x2="183" y2="140.9"/>
        <line class="st3" x1="172.6" y1="146.9" x2="172.6" y2="131.5"/>
        <line class="st3" x1="149.4" y1="147.1" x2="149.4" y2="135.9"/>
        <line class="st3" x1="160.7" y1="153.7" x2="160.8" y2="124.4"/>
        <line class="st3" x1="160.7" y1="153.7" x2="149.4" y2="147.1"/>
        <line class="st3" x1="149.4" y1="147.1" x2="133.3" y2="156.4"/>
        <line class="st3" x1="172.6" y1="146.9" x2="185.9" y2="154.6"/>
        <line class="st3" x1="160.9" y1="166.8" x2="170.5" y2="172.4"/>
        <line class="st3" x1="160.7" y1="153.7" x2="186.1" y2="168.3"/>
        <line class="st3" x1="160.7" y1="153.7" x2="160.9" y2="166.8"/>
        <line class="st3" x1="160.9" y1="166.8" x2="142.6" y2="177.3"/>
      </g>
    </g>
  </g>
  <g id="Ebene_2_2_">
    <polygon class="st4" points="253.7 51.7 278.5 36.1 253.7 20.6 "/>
    <polygon class="st4" points="253.6 280.2 228.8 295.8 253.6 311.3 "/>
  </g>
</svg>
