<svg width="425.19685" height="425.19684" xmlns="http://www.w3.org/2000/svg">

 <metadata id="metadata7">image/svg+xml</metadata>
 <g>
  <title>background</title>
  <rect fill="#ffffff" id="canvas_background" height="427.19684" width="427.19685" y="-1" x="-1"/>
 </g>
 <g>
  <title>Layer 1</title>
  <g stroke="null" id="layer1">
   <g stroke="null" transform="matrix(1.926507454732111,0,0,1.929024417008013,-270.3425733982042,-564.0210304536611) " id="g3356">
    <g stroke="null" id="g3374" transform="matrix(7.1102902,0,0,7.8210048,-209.30773,-5222.5837) ">
     <path stroke="#0f0f00" clip-rule="nonzero" fill="#ffffff" fill-rule="evenodd" stroke-width="1px" stroke-miterlimit="4" stroke-dashoffset="0" id="path3353" d="m33.283704,718.463879c7,-5 9,-5 15.44536,0.0529"/>
     <path stroke="#0f0f00" clip-rule="nonzero" fill="#ffffff" fill-rule="evenodd" stroke-width="0.998817px" stroke-miterlimit="4" stroke-dashoffset="0" id="path3353-6" d="m33.409794,718.825709c7.00039,4.98789 9.00051,4.98789 15.44623,-0.0528"/>
     <circle stroke="#0f0f00" fill="#000000" stroke-width="0.992126" stroke-miterlimit="4" r="2.5" cy="718.455669" cx="41.297567" id="path3370"/>
     <ellipse stroke="#0f0f00" fill="#ffffff" stroke-width="0.992126" stroke-miterlimit="4" ry="0.975087" rx="1" cy="717.299479" cx="40.413202" id="path3372"/>
    </g>
    <g stroke="null" id="g3757" transform="matrix(0.97575964,0.21884496,-0.21884496,0.97575964,85.52761,-11.186877) ">
     <rect stroke="#0f0f00" fill="#000000" stroke-width="0.992126" stroke-miterlimit="4" transform="matrix(0.99998643,-0.00521023,0.00521023,0.99998643,0,0) " y="306.028734" x="192.362949" height="160.96315" width="97.272079" id="rect3478"/>
     <g stroke="null" transform="matrix(0.88427962,-0.00460736,0.00441873,0.84807617,257.96071,-151.34021) " id="g3576">
      <path stroke="#0f0f00" clip-rule="nonzero" fill="#ffffff" fill-rule="evenodd" stroke-width="6.682932px" stroke-miterlimit="4" stroke-dashoffset="0" d="m-62.739787,513.500108c26.96313,-32.9275 59.60743,-32.9275 81.87486,-0.45517" id="path3544"/>
      <path stroke="#0f0f00" clip-rule="nonzero" fill="#ffffff" fill-rule="evenodd" stroke-width="4.854226px" stroke-miterlimit="4" stroke-dashoffset="0" d="m-47.814917,522.370998c18.05717,-25.94096 39.91901,-25.94096 54.83148,-0.35861" id="path3544-1"/>
      <path stroke="#0f0f00" clip-rule="nonzero" fill="#ffffff" fill-rule="evenodd" stroke-width="3.369988px" stroke-miterlimit="4" stroke-dashoffset="0" d="m-39.894277,529.310858c13.0976,-17.237 28.95489,-17.237 39.77151,-0.2383" id="path3544-5"/>
     </g>
     <circle stroke="#0f0f00" fill="#ffffff" stroke-width="0.992126" stroke-miterlimit="4" r="12.5" cy="337.811116" cx="224.43848" id="path3680"/>
     <circle stroke="#0f0f00" fill="#ffffff" stroke-width="0.992126" stroke-miterlimit="4" r="12.5" cy="337.811116" cx="263.41486" id="path3680-6"/>
     <circle stroke="#0f0f00" fill="#ffffff" stroke-width="0.992126" stroke-miterlimit="4" r="12.5" cy="373.244226" cx="224.43848" id="path3680-3"/>
     <circle stroke="#0f0f00" fill="#ffffff" stroke-width="0.992126" stroke-miterlimit="4" r="12.5" cy="373.244226" cx="263.41486" id="path3680-3-6"/>
     <circle stroke="#0f0f00" fill="#ffffff" stroke-width="0.992126" stroke-miterlimit="4" r="12.5" cy="408.677266" cx="224.43848" id="path3680-3-4"/>
     <circle stroke="#0f0f00" fill="#ffffff" stroke-width="0.992126" stroke-miterlimit="4" r="12.5" cy="408.677266" cx="263.41486" id="path3680-3-6-9"/>
    </g>
   </g>
  </g>
  <rect stroke="#000" id="svg_5" height="440.99998" width="264.000021" y="56.051564" x="-418.90155" fill-opacity="null" stroke-opacity="null" stroke-width="0" fill="#fff"/>
 </g>
</svg>