<?xml version="1.0" encoding="UTF-8" standalone="no"?>
<svg
   width="80mm"
   height="80mm"
   viewBox="0 0 80 80"
   version="1.1"
   id="svg841"
   sodipodi:docname="TVentil.svg"
   inkscape:version="1.3.1 (91b66b0783, 2023-11-16)"
   xmlns:inkscape="http://www.inkscape.org/namespaces/inkscape"
   xmlns:sodipodi="http://sodipodi.sourceforge.net/DTD/sodipodi-0.dtd"
   xmlns="http://www.w3.org/2000/svg"
   xmlns:svg="http://www.w3.org/2000/svg"
   xmlns:rdf="http://www.w3.org/1999/02/22-rdf-syntax-ns#"
   xmlns:cc="http://creativecommons.org/ns#"
   xmlns:dc="http://purl.org/dc/elements/1.1/">
  <sodipodi:namedview
     id="namedview1"
     pagecolor="#ffffff"
     bordercolor="#000000"
     borderopacity="0.25"
     inkscape:showpageshadow="2"
     inkscape:pageopacity="0.0"
     inkscape:pagecheckerboard="0"
     inkscape:deskcolor="#d1d1d1"
     inkscape:document-units="mm"
     inkscape:zoom="2.6028385"
     inkscape:cx="151.1811"
     inkscape:cy="151.1811"
     inkscape:window-width="2400"
     inkscape:window-height="1421"
     inkscape:window-x="-9"
     inkscape:window-y="-9"
     inkscape:window-maximized="1"
     inkscape:current-layer="g4" />
  <defs
     id="defs835">
    <rect
       x="31.347486"
       y="140.71538"
       width="48.066146"
       height="45.976313"
       id="rect1" />
    <rect
       x="31.347486"
       y="140.71538"
       width="48.066146"
       height="45.976313"
       id="rect2" />
    <rect
       x="31.347486"
       y="140.71538"
       width="48.066146"
       height="45.976313"
       id="rect4" />
    <rect
       x="31.347486"
       y="140.71538"
       width="48.066146"
       height="45.976313"
       id="rect5" />
    <rect
       x="31.347486"
       y="140.71538"
       width="48.066146"
       height="45.976313"
       id="rect6" />
    <rect
       x="31.347486"
       y="140.71538"
       width="48.066146"
       height="45.976313"
       id="rect7" />
  </defs>
  <metadata
     id="metadata838">
    <rdf:RDF>
      <cc:Work
         rdf:about="">
        <dc:format>image/svg+xml</dc:format>
        <dc:type
           rdf:resource="http://purl.org/dc/dcmitype/StillImage" />
      </cc:Work>
    </rdf:RDF>
  </metadata>
  <g
     id="layer1"
     transform="translate(-48.068451,-86.244049)"
     inkscape:label="base">
    <path
       id="path940"
       d="m 49.125148,128.68134 c 0,12.01144 0.06478,18.23335 0.189423,18.19293 0.916937,-0.29731 38.63285,-18.14753 38.536634,-18.23866 -0.127974,-0.1212 -35.865477,-16.95487 -37.725338,-17.77001 l -1.000719,-0.4386 z"
       style="fill:#878787;fill-opacity:1;stroke:#878787;stroke-width:0.708312;stroke-linejoin:round;stroke-miterlimit:4;stroke-dasharray:none;stroke-opacity:1" />
    <path
       id="path938"
       d="m 77.813483,106.13157 c 4.416401,8.89534 8.482039,17.11378 9.034748,18.26319 0.552712,1.14942 1.031214,2.06176 1.063339,2.02743 0.10214,-0.10915 18.344,-36.281159 18.344,-36.374538 0,-0.04918 -8.20618,-0.08942 -18.235954,-0.08942 H 69.783665 Z"
       style="fill:#878787;fill-opacity:1;stroke:#878787;stroke-width:0.696611;stroke-linejoin:round;stroke-miterlimit:4;stroke-dasharray:none;stroke-opacity:1" />
    <path
       id="path930"
       d="m 48.632456,109.48057 79.024794,38.42049 v -38.42049 l -79.024794,38.42049 v -38.42049"
       style="fill:none;stroke:#000000;stroke-width:0.975184;stroke-linecap:butt;stroke-linejoin:round;stroke-miterlimit:4;stroke-dasharray:none;stroke-opacity:1" />
    <path
       id="path932"
       d="M 87.891315,127.84606 68.849332,89.400066 h 38.429678 z"
       style="fill:none;stroke:#000000;stroke-width:0.965965;stroke-linecap:butt;stroke-linejoin:round;stroke-miterlimit:4;stroke-dasharray:none;stroke-opacity:1" />
    <path
       id="path936"
       d="m 108.47844,119.38218 c -10.283746,5.00078 -18.764157,9.15878 -18.84536,9.23998 -0.0812,0.0812 8.327609,4.26855 18.68625,9.30522 10.35863,5.03667 18.8604,9.13106 18.8928,9.09866 0.0324,-0.0324 0.0376,-8.31131 0.0115,-18.39756 l -0.0474,-18.33865 z"
       style="fill:#000000;fill-opacity:1;stroke:#000000;stroke-width:0.703577;stroke-linejoin:round;stroke-miterlimit:4;stroke-dasharray:none;stroke-opacity:1" />
    <rect
       y="-165.6898"
       x="69.105133"
       height="21.151361"
       width="37.555096"
       id="rect942"
       style="fill:none;fill-opacity:1;stroke:#000000;stroke-width:1;stroke-linejoin:round;stroke-miterlimit:4;stroke-dasharray:none;stroke-opacity:1"
       transform="scale(1,-1)" />
    <path
       id="path944"
       d="m 88.167782,127.84606 v 16.91219"
       style="fill:none;stroke:#000000;stroke-width:1.04667;stroke-linecap:butt;stroke-linejoin:miter;stroke-miterlimit:4;stroke-dasharray:none;stroke-opacity:1" />
  </g>
  <g
     id="layer2"
     style="display:none"
     inkscape:label="labels">
    <text
       xml:space="preserve"
       transform="matrix(4.7409074,0,0,1.5207031,-146.98145,-181.5969)"
       id="text5"
       style="white-space:pre;shape-inside:url(#rect6);display:inline;fill:#000000"
       inkscape:label="1"><tspan
         x="31.347656"
         y="151.63327"
         id="tspan1">1</tspan></text>
    <text
       xml:space="preserve"
       transform="matrix(3.4154799,0,0,1.0955563,-78.439098,-144.51229)"
       id="text6"
       style="font-style:normal;font-variant:normal;font-weight:normal;font-stretch:normal;font-size:12px;font-family:sans-serif;-inkscape-font-specification:'sans-serif, Normal';font-variant-ligatures:normal;font-variant-caps:normal;font-variant-numeric:normal;font-variant-east-asian:normal;white-space:pre;shape-inside:url(#rect7);display:inline;fill:#000000"
       inkscape:label="0"><tspan
         x="31.347656"
         y="151.63327"
         id="tspan2">0</tspan></text>
  </g>
  <style
     id="style2018"
     type="text/css">
	.st0{fill:#878787;}
	.st1{fill:none;stroke:#000000;stroke-width:4;stroke-miterlimit:10;}
	.st2{fill:#878787;stroke:#000000;stroke-width:11;stroke-miterlimit:10;}
	.st3{fill:#878787;stroke:#000000;stroke-width:3;stroke-miterlimit:10;}
</style>
  <style
     type="text/css"
     id="style873">
	.st0{fill:#878787;}
	.st1{fill:none;stroke:#000000;stroke-width:4;stroke-miterlimit:10;}
	.st2{fill:#878787;stroke:#000000;stroke-width:11;stroke-miterlimit:10;}
	.st3{fill:#878787;stroke:#000000;stroke-width:3;stroke-miterlimit:10;}
</style>
  <g
     id="g4"
     style="display:inline"
     inkscape:label="labelsAsPaths">
    <path
       d="M 44.66386,26.748556 H 39.7748 v -8.135168 q 0,-0.383142 0,-0.819751 0.02797,-0.436609 0.05556,-0.864306 0.05556,-0.43661 0.08335,-0.828662 0.05556,-0.400964 0.08335,-0.703918 -0.472241,0.160388 -0.833361,0.27622 -0.361115,0.115878 -0.750031,0.222753 -0.361115,0.106905 -0.777802,0.231679 -0.416679,0.115878 -1.000038,0.27622 l -4.111253,1.078149 -2.666761,-1.095971 10.639265,-2.664196 h 4.166812 z"
       id="text1"
       style="white-space:pre;stroke-width:2.68505"
       inkscape:label="1"
       aria-label="1" />
    <path
       d="m 26.591899,42.623088 q 0,1.136212 -0.520328,2.034908 -0.500313,0.898707 -1.641029,1.521377 -1.120704,0.622659 -2.901826,0.950044 -1.781118,0.327385 -4.322716,0.327385 -2.361484,0 -4.12259,-0.327385 Q 11.342314,46.802032 10.181587,46.179373 9.0408682,45.556703 8.460503,44.657996 7.9001526,43.7593 7.9001526,42.623088 q 0,-1.136213 0.5003131,-2.034909 0.5203279,-0.898695 1.6210213,-1.514946 1.120704,-0.62267 2.881811,-0.950055 1.781118,-0.327385 4.302702,-0.327385 2.381498,0 4.142604,0.327385 1.761107,0.320965 2.921837,0.943635 1.160727,0.616251 1.741092,1.514946 0.580366,0.898696 0.580366,2.041329 z m -14.989421,0 q 0,0.962895 0.300187,1.681854 0.300186,0.718959 0.960603,1.200401 0.660414,0.475022 1.721081,0.718959 1.080678,0.237516 2.621647,0.237516 1.540969,0 2.621647,-0.237516 1.080682,-0.237517 1.761107,-0.712539 0.700443,-0.475022 1.00063,-1.193981 0.320201,-0.725379 0.320201,-1.694694 0,-0.962885 -0.320201,-1.681844 -0.300187,-0.718959 -1.00063,-1.193992 -0.680425,-0.475022 -1.761107,-0.712539 -1.080678,-0.237516 -2.621647,-0.237516 -1.540969,0 -2.621647,0.237516 -1.060667,0.237517 -1.721081,0.712539 -0.660414,0.475033 -0.960603,1.193992 -0.300187,0.718959 -0.300187,1.681844 z"
       id="text2"
       style="font-size:12px;-inkscape-font-specification:'sans-serif, Normal';white-space:pre;stroke-width:1.93439"
       inkscape:label="0"
       aria-label="0" />
  </g>
</svg>
